<svg width="320" height="349" viewBox="0 0 320 349" fill="none" xmlns="http://www.w3.org/2000/svg">
<path d="M312 0.5H8C3.9 0.5 0.5 3.9 0.5 8V341C0.5 345.1 3.9 348.5 8 348.5H312C316.1 348.5 319.5 345.1 319.5 341V8C319.5 3.9 316.1 0.5 312 0.5ZM252.3 250C252.3 251.6 251 252.8 249.5 252.8H69C67.4 252.8 66.2 251.5 66.2 250V121.5H252.3V250ZM252.4 121.3H65.9V109.5C65.9 107.8 67.2 106.5 68.9 106.5H249.4C251.1 106.5 252.4 107.8 252.4 109.5V121.3Z" fill="white" stroke="#E3E4E5"/>
<path d="M121.3 96H86.6001C85.8001 96 85.1001 96.7 85.1001 97.5C85.1001 98.3 85.8001 99 86.6001 99H121.4C122.2 99 122.9 98.3 122.9 97.5C122.8 96.7 122.2 96 121.3 96Z" fill="#9FC5FF"/>
<path d="M149.9 96H132.6C131.8 96 131.1 96.7 131.1 97.5C131.1 98.3 131.8 99 132.6 99H149.9C150.7 99 151.4 98.3 151.4 97.5C151.3 96.7 150.7 96 149.9 96Z" fill="#9FC5FF"/>
<path d="M258.8 108.6H252.6C252.3 108.6 252.1 109.2 252.1 109.9C252.1 110.6 252.3 111.2 252.6 111.2H258.8C259.1 111.2 259.3 110.6 259.3 109.9C259.3 109.2 259.1 108.6 258.8 108.6Z" fill="#9FC5FF"/>
<path d="M65.0002 119.8H37.4002C36.8002 119.8 36.2002 120.4 36.2002 121.1C36.2002 121.8 36.7002 122.4 37.4002 122.4H65.0002C65.6002 122.4 66.2002 121.8 66.2002 121.1C66.2002 120.4 65.7002 119.8 65.0002 119.8Z" fill="#9FC5FF"/>
<path d="M78 150H29.5C28.7 150 28 150.6 28 151.4C28 152.2 28.7 152.9 29.5 152.9H78C78.8 152.9 79.5 152.2 79.5 151.4C79.5 150.6 78.9 150 78 150Z" fill="#9FC5FF"/>
<path d="M230 175.8H181.4C180.6 175.8 179.9 176.5 179.9 177.3C179.9 178.1 180.6 178.8 181.4 178.8H230C230.8 178.8 231.5 178.1 231.5 177.3C231.5 176.4 230.8 175.8 230 175.8Z" fill="#9FC5FF"/>
<path d="M268.9 175.8H244.2C243.4 175.8 242.7 176.5 242.7 177.3C242.7 178.1 243.4 178.8 244.2 178.8H268.9C269.7 178.8 270.4 178.1 270.4 177.3C270.4 176.4 269.7 175.8 268.9 175.8Z" fill="#9FC5FF"/>
<path d="M78.0999 174.3H50.8999C50.0999 174.3 49.3999 175 49.3999 175.8C49.3999 176.6 50.0999 177.3 50.8999 177.3H77.9999C78.7999 177.3 79.4999 176.6 79.4999 175.8C79.4999 175 78.8999 174.3 78.0999 174.3Z" fill="#9FC5FF"/>
<path d="M67.6999 199.6H50.8999C50.0999 199.6 49.3999 200.3 49.3999 201.1C49.3999 201.9 50.0999 202.6 50.8999 202.6H67.6999C68.4999 202.6 69.1999 201.9 69.1999 201.1C69.1999 200.3 68.4999 199.6 67.6999 199.6Z" fill="#9FC5FF"/>
<path d="M119.4 199.6H76.2998C75.4998 199.6 74.7998 200.3 74.7998 201.1C74.7998 201.9 75.4998 202.6 76.2998 202.6H119.4C120.2 202.6 120.9 201.9 120.9 201.1C120.8 200.3 120.2 199.6 119.4 199.6Z" fill="#9FC5FF"/>
<path d="M98.3002 216.6H55.2002C54.4002 216.6 53.7002 217.3 53.7002 218.1C53.7002 218.9 54.4002 219.6 55.2002 219.6H98.3002C99.1002 219.6 99.8002 218.9 99.8002 218.1C99.8002 217.3 99.1002 216.6 98.3002 216.6Z" fill="#9FC5FF"/>
<path d="M224.3 216.6H175C174.2 216.6 173.5 217.3 173.5 218.1C173.5 218.9 174.2 219.6 175 219.6H224.3C225.1 219.6 225.8 218.9 225.8 218.1C225.8 217.3 225.1 216.6 224.3 216.6Z" fill="#9FC5FF"/>
<path d="M261.4 208.3H225.4C224.6 208.3 223.9 209 223.9 209.8C223.9 210.6 224.6 211.3 225.4 211.3H261.4C262.2 211.3 262.9 210.6 262.9 209.8C262.8 208.9 262.2 208.3 261.4 208.3Z" fill="#9FC5FF"/>
<path d="M261.4 227H225.4C224.6 227 223.9 227.7 223.9 228.5C223.9 229.3 224.6 230 225.4 230H261.4C262.2 230 262.9 229.3 262.9 228.5C262.9 227.7 262.2 227 261.4 227Z" fill="#9FC5FF"/>
<path d="M257.1 194H207.8C207 194 206.3 194.7 206.3 195.5C206.3 196.3 207 197 207.8 197H257.1C257.9 197 258.6 196.3 258.6 195.5C258.5 194.7 257.9 194 257.1 194Z" fill="#9FC5FF"/>
<path d="M289.5 194H270.1C269.3 194 268.6 194.7 268.6 195.5C268.6 196.3 269.3 197 270.1 197H289.5C290.3 197 291 196.3 291 195.5C291 194.7 290.3 194 289.5 194Z" fill="#9FC5FF"/>
<path d="M105 174.3H92.2998C91.4998 174.3 90.7998 175 90.7998 175.8C90.7998 176.6 91.4998 177.3 92.2998 177.3H105C105.8 177.3 106.5 176.6 106.5 175.8C106.5 175 105.8 174.3 105 174.3Z" fill="#9FC5FF"/>
<path d="M231 134.2H196.2C195.4 134.2 194.7 134.9 194.7 135.7C194.7 136.5 195.4 137.2 196.2 137.2H231C231.8 137.2 232.5 136.5 232.5 135.7C232.4 134.9 231.8 134.2 231 134.2Z" fill="#9FC5FF"/>
<path d="M278 134.2H242.2C241.4 134.2 240.7 134.9 240.7 135.7C240.7 136.5 241.4 137.2 242.2 137.2H278C278.8 137.2 279.5 136.5 279.5 135.7C279.4 134.9 278.8 134.2 278 134.2Z" fill="#9FC5FF"/>
<path d="M183.4 161V188.3V138.1V161Z" fill="white" stroke="#A3C5FF" stroke-width="0.5"/>
<path d="M236.8 161V188.3V138.1V161Z" fill="white" stroke="#A3C5FF" stroke-width="0.5"/>
<path d="M79.7998 188.3H130H79.7998Z" stroke="#A3C5FF" stroke-width="0.5"/>
<path d="M130 161C129.6 160.7 129.1 160.5 128.6 160.5C127.9 160.5 127.2 160.7 126.6 161C120.5 163.7 114.6 166.9 109 170.6C104.8 167.5 100.5 164.6 96.0002 161.9C95.1002 161.4 94.1002 160.8 93.1002 160.8C92.0002 160.8 91.0002 161.4 90.0002 162C86.3002 164.4 82.9002 167.1 79.7002 170.2V188.3H130V161Z" fill="#D7EFF9"/>
<path d="M117.2 154.3C121.1 154.3 124.2 151.2 124.2 147.3C124.2 143.4 121.1 140.3 117.2 140.3C113.3 140.3 110.2 143.4 110.2 147.3C110.2 151.2 113.4 154.3 117.2 154.3Z" fill="#D7EFF9"/>
<path d="M133.2 188.3H183.4H133.2Z" stroke="#A3C5FF" stroke-width="0.5"/>
<path d="M183.4 161C183 160.7 182.5 160.5 182 160.5C181.3 160.5 180.6 160.7 180 161C173.9 163.7 168 166.9 162.4 170.6C158.2 167.5 153.9 164.6 149.4 161.9C148.5 161.4 147.5 160.8 146.5 160.8C145.4 160.8 144.4 161.4 143.4 162C139.7 164.4 136.3 167.1 133.1 170.2V188.3H183.3L183.4 161Z" fill="#D7EFF9"/>
<path d="M170.8 154.3C174.7 154.2 177.7 150.9 177.6 147.1C177.5 143.2 174.2 140.2 170.4 140.3C166.5 140.4 163.5 143.7 163.6 147.5C163.7 151.4 167 154.4 170.8 154.3Z" fill="#D7EFF9"/>
<path d="M186.6 188.3H236.8H186.6Z" stroke="#A3C5FF" stroke-width="0.5"/>
<path d="M236.8 161C236.4 160.7 235.9 160.5 235.4 160.5C234.7 160.5 234 160.7 233.4 161C227.3 163.7 221.4 166.9 215.8 170.6C211.6 167.5 207.3 164.6 202.8 161.9C201.9 161.4 200.9 160.8 199.9 160.8C198.8 160.8 197.8 161.4 196.8 162C193.1 164.4 189.7 167.1 186.5 170.2V188.3H236.7V161H236.8Z" fill="#D7EFF9"/>
<path d="M231 147.6C231.1 143.7 228.1 140.5 224.3 140.3C220.4 140.2 217.2 143.2 217 147C216.9 150.9 219.9 154.1 223.7 154.3C227.6 154.5 230.8 151.5 231 147.6Z" fill="#D7EFF9"/>
<path d="M157.5 204.2C149.3 204.2 142.7 210.9 142.7 219C142.7 227.2 149.4 233.8 157.5 233.8C165.7 233.8 172.3 227.1 172.3 219C172.3 210.8 165.7 204.2 157.5 204.2ZM166.3 219.7H158.2V227.8C158.2 228.2 157.9 228.5 157.5 228.5C157.1 228.5 156.8 228.2 156.8 227.8V219.7H148.7C148.3 219.7 148 219.4 148 219C148 218.6 148.3 218.3 148.7 218.3H156.8V210.2C156.8 209.8 157.1 209.5 157.5 209.5C157.9 209.5 158.2 209.8 158.2 210.2V218.3H166.3C166.7 218.3 167 218.6 167 219C166.9 219.4 166.6 219.7 166.3 219.7Z" fill="white" stroke="#A3C5FF" stroke-width="0.5"/>
<path d="M66.2002 250C66.2002 251.5 67.4002 252.8 69.0002 252.8H249.5C251 252.8 252.3 251.6 252.3 250V121.5H66.2002V250ZM157.5 235.2C148.6 235.2 141.3 227.9 141.3 219C141.3 210.1 148.6 202.8 157.5 202.8C166.4 202.8 173.7 210.1 173.7 219C173.7 227.9 166.4 235.2 157.5 235.2ZM186.6 170.2V138.1H236.8V188.3H186.6V170.2ZM133.2 170.2V138.1H183.4V188.3H133.2V170.2ZM79.8002 170.2V138.1H130V161V188.2H79.8002V170.2Z" fill="white" stroke="#A3C5FF" stroke-width="0.5"/>
</svg>
