<svg width="154" height="100" viewBox="0 0 154 100" fill="none" xmlns="http://www.w3.org/2000/svg">
<g clip-path="url(#clip0)">
<path fill-rule="evenodd" clip-rule="evenodd" d="M116.026 46.7806H146.771C147.638 46.7806 148.356 47.4988 148.356 48.3656V64.0169C148.356 64.8837 147.638 65.6018 146.771 65.6018H116.026C115.159 65.6018 114.442 64.8837 114.442 64.0169V48.3656C114.417 47.4988 115.135 46.7806 116.026 46.7806Z" fill="#EFEEF8"/>
<path fill-rule="evenodd" clip-rule="evenodd" d="M131.572 97.2759C171.205 65.8742 124.913 31.7732 105.357 52.6994C125.087 -14.7845 2.07961 -19.9356 29.9536 51.684C29.9536 51.684 -17.2539 53.269 11.6102 94.8737L131.572 97.2759Z" fill="#EFEEF8"/>
<path fill-rule="evenodd" clip-rule="evenodd" d="M96.9153 94.0317C101.198 86.9985 102.46 80.7578 98.6729 77.1917C94.4646 73.2293 84.8102 79.2224 75.1558 94.0317H96.9153Z" fill="#BBB2D8"/>
<path fill-rule="evenodd" clip-rule="evenodd" d="M81.171 94.0317C81.5919 93.5116 81.9879 92.9916 82.384 92.4963C83.2257 92.5954 86.4438 93.0659 90.058 94.0317H91.5928C87.7063 92.8925 83.9931 92.2982 82.7058 92.1248C84.2159 90.2922 85.6764 88.7321 87.0379 87.37C88.0777 87.3948 92.8058 87.6176 96.5686 88.9054C96.6676 88.9302 96.7914 88.8806 96.8409 88.7816C96.8656 88.6825 96.8161 88.5587 96.7171 88.5092C93.2514 87.3205 89.0183 87.0233 87.4588 86.9738C88.0281 86.4289 88.5727 85.9089 89.0926 85.4383C89.9095 85.3641 92.9791 85.1412 97.1379 85.8593C97.2617 85.8841 97.3607 85.8098 97.3855 85.686C97.4102 85.5622 97.336 85.4631 97.2122 85.4383C93.6723 84.844 90.875 84.8935 89.6125 84.9678C93.895 81.2036 96.7666 79.891 96.7914 79.8663C96.9399 79.792 97.0142 79.6186 96.9399 79.4453C96.8656 79.2967 96.6923 79.2224 96.5191 79.2967C96.4943 79.2967 95.2318 79.891 93.1524 81.3522C93.6227 80.4359 94.2911 79.1481 94.5139 78.9748C94.5882 78.9005 94.6129 78.7766 94.5139 78.6776C94.4397 78.6033 94.3159 78.5785 94.2169 78.6776C93.8951 78.9748 92.7811 81.1541 92.4098 81.897C91.5681 82.5161 90.6026 83.2838 89.5629 84.1753L90.7759 79.792C90.8007 79.6929 90.7512 79.5691 90.6274 79.5443C90.5284 79.5196 90.4046 79.5691 90.3799 79.6929L89.0183 84.6706C88.3004 85.3145 87.5578 86.0079 86.7904 86.7756L88.0034 81.6246C88.0281 81.5255 87.9539 81.4017 87.8549 81.3769C87.7558 81.3522 87.6321 81.4265 87.6073 81.5255L86.2458 87.3205C85.0823 88.4844 83.8693 89.8217 82.5821 91.3076L83.4732 86.0575C83.498 85.9336 83.4237 85.8346 83.3 85.8098C83.1762 85.7851 83.0772 85.8593 83.0524 85.9832L82.0375 91.9267C81.4929 92.5706 80.9482 93.264 80.3789 93.9822H81.171V94.0317ZM80.3046 94.0317H79.8838L80.5769 89.4007C80.6017 89.2769 80.7007 89.2026 80.8245 89.2273C80.9482 89.2521 81.0225 89.3512 80.9978 89.475L80.3046 94.0317Z" fill="white"/>
<path fill-rule="evenodd" clip-rule="evenodd" d="M80.7998 92.1248C80.874 90.4656 80.9978 88.8807 81.1711 87.3452C81.3444 85.7851 81.5919 84.2744 81.889 82.8381C83.0029 77.4394 84.8596 72.9074 87.2855 69.1184C89.9096 65.0322 93.202 61.8128 96.9399 59.3859C100.406 57.1323 104.218 55.5721 108.253 54.5815C112.56 53.5166 117.115 53.1451 121.645 53.3185C123.18 53.368 124.715 53.5166 126.25 53.69C127.809 53.8881 129.344 54.1357 130.879 54.4577C131.052 54.4824 131.201 54.6063 131.275 54.7301C131.374 54.8539 131.399 55.0273 131.374 55.2006V55.2501C131.25 55.8445 128.403 68.5488 120.804 79.4453C113.13 90.4656 100.628 99.6781 81.2454 92.7935C81.0968 92.744 80.9978 92.6449 80.9235 92.5458C80.8245 92.3973 80.775 92.2487 80.7998 92.1248ZM130.607 55.4235C129.839 55.6216 126.621 56.5379 122.041 58.4696C123.675 58.9649 127.413 60.104 129.047 60.847C129.938 58.1476 130.433 56.1912 130.607 55.4235ZM128.874 61.4166C126.968 60.5498 121.942 59.0639 121.175 58.841C118.897 59.8316 116.323 61.0699 113.55 62.6053L126.497 67.6325C127.463 65.3542 128.255 63.2492 128.874 61.4166ZM126.25 68.1773L112.857 62.9767C110.283 64.4131 107.56 66.1219 104.787 68.0783C107.436 69.2175 120.061 74.7152 122.14 76.1021C123.749 73.4275 125.111 70.7281 126.25 68.1773ZM121.819 76.6469C119.714 75.2601 105.777 69.1927 104.193 68.524C101.965 70.1338 99.7125 71.892 97.4598 73.8732L117.264 82.7885C117.288 82.7885 117.313 82.8133 117.338 82.8381C118.378 81.6246 119.343 80.3616 120.234 79.0738C120.779 78.2566 121.299 77.4394 121.819 76.6469ZM116.917 83.2838L96.9647 74.2942C95.2071 75.8544 93.4743 77.5384 91.7662 79.3215C94.9843 80.8321 111.521 88.1377 111.57 88.1377C111.62 88.1625 111.644 88.1872 111.694 88.2368C113.6 86.7757 115.358 85.0917 116.917 83.2838ZM111.174 88.6578C109.416 87.8901 93.9446 81.055 91.3206 79.8168C89.86 81.3769 88.4243 83.0609 87.0132 84.8192C90.8255 87.271 104.069 92.3725 104.094 92.3973C104.168 92.422 104.243 92.4963 104.267 92.5706C106.792 91.5305 109.095 90.218 111.174 88.6578ZM103.549 92.8182C101.421 92.001 90.1323 87.5681 86.6419 85.2898C85.7507 86.4289 84.8596 87.6177 84.0179 88.8559C85.5032 89.6484 92.1622 93.1154 96.6181 94.0813C96.7419 94.106 96.8409 94.2051 96.8657 94.3289C99.2421 94.0813 101.47 93.5612 103.549 92.8182ZM95.5042 94.428C90.974 93.1897 84.9338 90.0198 83.6713 89.3512C83.0277 90.2922 82.3841 91.2581 81.7652 92.2487C86.8152 94.007 91.3701 94.6261 95.5042 94.428ZM81.4929 91.5553C82.0623 90.639 82.6564 89.7474 83.2505 88.8807C82.8297 87.0728 82.7059 84.0515 82.6811 82.3428C82.6316 82.5409 82.5821 82.739 82.5574 82.9619C82.2603 84.3735 82.0375 85.8594 81.8395 87.4195C81.6662 88.7321 81.5424 90.1189 81.4929 91.5553ZM83.0277 80.8074C83.1515 80.8321 83.2505 80.9559 83.2505 81.1045C83.2505 81.1293 83.2257 85.5622 83.7208 88.212C84.5378 87.0481 85.4042 85.9089 86.2458 84.8192C86.0973 83.9525 85.3052 79.1234 85.4537 73.7989C84.4882 75.9287 83.6713 78.2566 83.0277 80.8074ZM85.9488 72.8083C86.0478 72.8579 86.1221 72.9817 86.1221 73.1055C85.8993 77.9346 86.5181 82.4914 86.7904 84.1506C88.152 82.4666 89.5382 80.8569 90.9493 79.3462C90.7017 78.2566 89.3649 71.7187 89.5877 66.9886C88.9689 67.7811 88.3995 68.5983 87.8301 69.4651C87.1618 70.5052 86.5181 71.6196 85.9488 72.8083ZM90.1076 66.3447C90.1819 66.3943 90.2314 66.4933 90.2314 66.6172C89.9096 70.8767 91.073 76.9441 91.4444 78.8262C93.1277 77.0679 94.8358 75.4086 96.5686 73.8732C94.4892 67.7811 94.613 63.0015 94.6872 61.8376C93.0287 63.1253 91.4939 64.636 90.1076 66.3447ZM95.2566 61.367C95.3061 61.4166 95.3309 61.5156 95.3309 61.5899C95.3309 61.6147 94.811 66.6172 97.0637 73.4275C99.3164 71.4463 101.569 69.6632 103.822 68.0535C102.906 65.156 102.51 58.1476 102.46 57.1818C100.678 57.9495 98.9451 58.8658 97.3113 59.9307C96.5934 60.3764 95.9002 60.847 95.2566 61.367ZM103.03 56.9341C103.054 56.9589 103.054 57.0084 103.054 57.0332C103.054 57.058 103.426 64.5122 104.342 67.6573C107.164 65.6513 109.911 63.9426 112.535 62.4815C112.04 58.841 112.511 55.0025 112.585 54.3834C111.174 54.5815 109.788 54.8539 108.401 55.2006C106.545 55.6464 104.762 56.216 103.03 56.9341ZM113.179 54.3091C113.179 54.3339 113.179 54.3586 113.179 54.3834C113.179 54.3834 112.61 58.3457 113.08 62.1595C115.902 60.5993 118.526 59.3363 120.853 58.321C120.804 56.315 121.2 54.2843 121.274 53.9376C118.551 53.8386 115.828 53.9624 113.179 54.3091ZM121.868 53.9624C121.868 53.9871 121.868 53.9871 121.868 54.0119C121.868 54.0119 121.447 56.0179 121.447 58.0486C125.656 56.2407 128.775 55.2997 130.037 54.9282C128.75 54.6806 127.463 54.4824 126.151 54.3091C124.74 54.1605 123.304 54.0367 121.868 53.9624Z" fill="#DAD5EB"/>
<path fill-rule="evenodd" clip-rule="evenodd" d="M64.1149 89.3512C62.7534 86.1813 59.6343 80.7083 52.8515 74.5419C42.1079 64.7846 34.8052 53.2195 40.0037 48.2913C45.128 43.4622 60.8225 57.9248 70.2294 88.0882C67.8282 88.7816 65.7983 89.1779 64.1149 89.3512Z" fill="#DAD5EB"/>
<path fill-rule="evenodd" clip-rule="evenodd" d="M66.9864 87.3453C66.6398 87.2711 65.7486 87.0729 64.5109 87.1968C64.4119 87.1968 64.3376 87.1472 64.3376 87.0482C64.3376 86.9491 64.3871 86.8748 64.4861 86.8748C65.5753 86.7758 66.417 86.8996 66.8626 86.9986C66.6893 86.5033 66.516 86.008 66.3427 85.5128C65.7981 85.3889 64.0653 85.0175 63.4217 84.9184C63.3227 84.8936 63.2731 84.8193 63.2979 84.745C63.2979 84.6708 63.3969 84.5965 63.4712 84.6212C64.0653 84.7203 65.5506 85.0175 66.219 85.1908C65.8972 84.2745 65.5506 83.383 65.204 82.5162C64.6842 82.4172 63.0504 82.1448 61.2185 82.0209C61.1195 82.0209 61.07 81.9466 61.07 81.8476C61.07 81.7485 61.1442 81.699 61.2432 81.699C62.9018 81.798 64.4119 82.0457 65.0802 82.1695C64.7337 81.3027 64.3871 80.4607 64.0405 79.6187C63.3227 79.4949 60.9957 79.0739 58.3469 78.9253C58.2479 78.9253 58.1984 78.851 58.1984 78.752C58.1984 78.6529 58.2727 78.6034 58.3717 78.6034C60.8224 78.752 63.0008 79.1235 63.892 79.272C63.4217 78.1824 62.9513 77.1423 62.481 76.1269C61.7383 75.9536 58.644 75.2354 56.1685 75.5326C56.0695 75.5326 55.9952 75.483 55.9952 75.384C55.9952 75.2849 56.0447 75.2106 56.1437 75.2106C58.4459 74.9382 61.268 75.5326 62.3077 75.7554C61.7136 74.5172 61.1195 73.3533 60.5254 72.2389C59.4857 72.0903 55.3268 71.5702 53.1237 72.5608C53.0494 72.5856 52.9504 72.5608 52.9256 72.4865C52.9009 72.4122 52.9256 72.3131 52.9999 72.2884C55.1288 71.3473 58.9906 71.7436 60.3273 71.9169C59.6837 70.7282 59.0648 69.6138 58.4212 68.5489C57.6538 68.5737 54.3862 68.6975 51.1433 69.589C51.069 69.6138 50.97 69.5643 50.9452 69.49C50.9205 69.4157 50.97 69.3166 51.0442 69.2918C54.0891 68.4498 57.1835 68.2765 58.1984 68.2517C57.8271 67.6326 57.431 67.0135 57.0597 66.4439C56.317 66.4439 53.1484 66.543 48.742 67.6821C48.6678 67.7069 48.5688 67.6574 48.544 67.5583C48.5193 67.484 48.5688 67.385 48.6678 67.3602C52.7771 66.2953 55.8467 66.1467 56.8616 66.122C55.9705 64.7351 55.0793 63.4721 54.2129 62.3082C53.2474 62.432 48.3707 63.0511 45.6724 64.0913C45.5982 64.116 45.4992 64.0913 45.4744 63.9922C45.4496 63.9179 45.4744 63.8188 45.5734 63.7941C48.1727 62.7787 52.7028 62.1596 54.0148 62.011C53.495 61.3424 52.9999 60.6985 52.5048 60.1041C51.6879 60.2032 47.9004 60.748 44.2862 61.9615C44.2119 61.9863 44.1129 61.9367 44.0881 61.8624C44.0634 61.7881 44.1129 61.6891 44.1871 61.6643C47.5786 60.5004 51.1433 59.9555 52.2572 59.807C51.0938 58.4201 49.9798 57.2067 48.9153 56.1665C48.1232 56.1913 44.4842 56.3647 41.6126 57.3553C41.5384 57.38 41.4394 57.3305 41.4146 57.2562C41.3899 57.1819 41.4394 57.0828 41.5136 57.0581C44.1624 56.1665 47.43 55.9189 48.6183 55.8694C48.1727 55.4484 47.7518 55.0521 47.3558 54.6807C46.7369 54.6311 44.3852 54.4578 41.1918 55.0026C41.1175 55.0274 41.0185 54.9531 41.0185 54.8788C40.9938 54.8045 41.068 54.7054 41.1423 54.7054C43.8653 54.2349 45.9943 54.2844 46.9844 54.3587C43.6921 51.4612 41.4889 50.4459 41.4889 50.4459C41.3651 50.3964 41.3156 50.2478 41.3651 50.1239C41.4146 50.0001 41.5631 49.9506 41.6869 50.0001C41.6869 50.0001 42.6771 50.4459 44.2614 51.5851C43.8901 50.8669 43.395 49.9011 43.2217 49.7525C43.1474 49.7029 43.1474 49.6039 43.2217 49.5296C43.2712 49.4553 43.3702 49.4553 43.4445 49.5296C43.6921 49.7525 44.5337 51.4117 44.8308 52.0061C45.4744 52.4766 46.217 53.071 47.0092 53.7644L46.0933 50.4211C46.0685 50.3468 46.118 50.2478 46.1923 50.223C46.2666 50.1982 46.3656 50.2478 46.3903 50.3221L47.43 54.1358C47.9746 54.6311 48.544 55.1512 49.1381 55.7455L48.2222 51.808C48.1974 51.7337 48.2469 51.6346 48.346 51.6098C48.4202 51.5851 48.5193 51.6346 48.544 51.7337L49.5837 56.1665C50.4749 57.0581 51.4156 58.0734 52.381 59.2374L51.6879 55.2007C51.6631 55.1264 51.7374 55.0274 51.8116 55.0274C51.8859 55.0026 51.9849 55.0769 51.9849 55.1512L52.7523 59.7079C53.1979 60.2527 53.6435 60.7975 54.0891 61.3919L53.5445 57.7763C53.5197 57.702 53.594 57.6029 53.6683 57.6029C53.7425 57.5781 53.8415 57.6524 53.8415 57.7267L54.4604 61.912C55.3021 63.0264 56.1437 64.2151 57.0102 65.5276L56.7626 62.0606C56.7626 61.9615 56.8121 61.8872 56.9111 61.8872C57.0102 61.8872 57.0844 61.9367 57.0844 62.0358L57.3815 66.0724C57.7281 66.5925 58.0499 67.1373 58.3964 67.7069V65.0818C58.3964 64.9828 58.4707 64.9333 58.545 64.9333C58.644 64.9333 58.6935 65.0076 58.6935 65.0818V68.227C59.3124 69.2671 59.956 70.3815 60.5749 71.5454L60.6491 68.648C60.6491 68.5489 60.7234 68.4994 60.8224 68.4994C60.9214 68.4994 60.9709 68.5737 60.9709 68.6727L60.8719 72.115C61.4165 73.1552 61.9611 74.22 62.5057 75.3344L62.7038 72.7837C62.7038 72.6846 62.778 72.6351 62.8771 72.6351C62.9761 72.6351 63.0256 72.7094 63.0256 72.8084L62.8028 75.904C63.2731 76.8946 63.7435 77.91 64.1891 78.9749L64.6347 76.7213C64.6594 76.647 64.7337 76.5727 64.8079 76.5974C64.8822 76.6222 64.9565 76.6965 64.9317 76.7708L64.4119 79.4702C64.7337 80.2379 65.0802 81.0303 65.4021 81.8476L66.0209 79.9902C66.0457 79.9159 66.1447 79.8664 66.219 79.8912C66.2932 79.9159 66.3427 80.015 66.318 80.0893L65.5753 82.3181C65.8724 83.061 66.1695 83.8535 66.4665 84.6212L66.9369 83.4325C66.9616 83.3582 67.0606 83.3087 67.1349 83.3335C67.2092 83.3582 67.2587 83.4573 67.2339 83.5316L66.6398 85.0422C66.8626 85.6366 67.0606 86.2309 67.2834 86.8501L68.0013 85.9338C68.0508 85.8595 68.1499 85.8595 68.2241 85.909C68.2984 85.9585 68.2984 86.0576 68.2489 86.1319L67.4072 87.1968C67.5805 87.6921 67.7538 88.2121 67.9271 88.7322C67.7785 88.7569 67.6052 88.8065 67.4567 88.8312C67.3329 88.3112 67.1597 87.8159 66.9864 87.3453Z" fill="white"/>
<path fill-rule="evenodd" clip-rule="evenodd" d="M59.3124 92.7935C59.2381 92.4716 59.1639 92.1496 59.0896 91.8277C57.8023 86.4785 55.7972 81.9961 53.2474 78.3061C50.4749 74.2942 47.0835 71.1987 43.2712 68.8955C39.7313 66.7658 35.8448 65.3294 31.8097 64.4626C27.4529 63.5463 22.898 63.3235 18.3678 63.6454C16.833 63.7692 15.2982 63.9426 13.7882 64.1902C12.2534 64.4379 10.7186 64.7351 9.20853 65.1065C9.03525 65.1561 8.88672 65.2551 8.81246 65.4037C8.73819 65.5523 8.68868 65.7256 8.73819 65.8742L8.76295 65.9238C8.91148 66.5181 12.2039 79.0986 20.1502 89.7474C20.9176 90.7876 21.7593 91.8029 22.6257 92.7935H23.5168C22.5267 91.6791 21.586 90.5399 20.6948 89.3512C20.1254 88.5835 19.5561 87.791 19.0362 86.9986C21.0909 85.5374 34.8051 78.9995 36.3646 78.2814C38.6421 79.8168 40.969 81.5008 43.2712 83.4077L24.1357 92.8183H25.522L43.7911 83.8534C45.5982 85.3393 47.3805 86.9738 49.1629 88.7073C47.8756 89.376 44.4347 91.06 40.7957 92.8183H42.182C45.5734 91.159 48.5935 89.6979 49.6085 89.1531C50.772 90.317 51.9107 91.5305 53.0494 92.8183H53.8663C52.6038 91.3571 51.2918 89.9951 49.9798 88.6826C50.1778 87.5681 51.3166 81.0055 50.9205 76.3002C51.5641 77.0679 52.183 77.8604 52.7523 78.7024C53.4702 79.7425 54.1386 80.8321 54.7575 81.9713C54.6585 82.0208 54.5842 82.1447 54.5842 82.2685C54.9308 86.6519 54.5842 90.8371 54.3614 92.8183H54.9803C55.2031 90.8866 55.5001 87.0481 55.2526 82.9371C56.317 85.0421 57.2082 87.3453 57.9509 89.8713C57.8271 89.896 57.7281 90.0446 57.7281 90.1684C57.7281 90.1684 57.7776 91.3324 57.7528 92.8183H58.3717C58.3717 92.2982 58.3717 91.8029 58.3717 91.3819C58.4212 91.58 58.4707 91.7782 58.5202 92.001C58.5945 92.2734 58.644 92.5459 58.7183 92.8183H59.3124V92.7935ZM9.45608 66.0971C10.2482 66.2705 13.4664 67.0629 18.1203 68.846C16.4865 69.3908 12.8227 70.6538 11.1889 71.4463C10.2235 68.8212 9.65412 66.8648 9.45608 66.0971ZM11.4117 72.0159C13.2931 71.0748 18.2688 69.4156 19.0115 69.1927C21.3137 70.109 23.9377 71.2729 26.7597 72.6845L14.011 78.1575C12.9465 75.9287 12.0801 73.8237 11.4117 72.0159ZM14.2585 78.7024L27.4529 73.056C30.0769 74.4181 32.8494 76.0278 35.6962 77.8851C33.097 79.1234 20.67 85.0421 18.6154 86.5033C16.9073 83.8782 15.4715 81.2036 14.2585 78.7024ZM50.3016 75.6315C50.2273 75.7058 50.1778 75.8049 50.2026 75.904C50.6729 80.1387 49.7075 86.2556 49.3857 88.1377C47.6528 86.429 45.8705 84.844 44.1129 83.3581C45.9695 77.1917 45.6972 72.4369 45.5734 71.2482C47.2568 72.5112 48.8658 73.9723 50.3016 75.6315ZM45.0041 70.8272C44.9546 70.8767 44.9298 70.9758 44.9546 71.0501C44.9546 71.0748 45.6477 76.0525 43.6178 82.9371C41.2908 81.0303 38.9886 79.3463 36.6864 77.8108C37.5033 74.8886 37.6519 67.8554 37.6766 66.9144C39.4837 67.6325 41.2413 68.4745 42.9247 69.4899C43.6178 69.8861 44.3109 70.3319 45.0041 70.8272ZM37.0825 66.6667C37.0825 66.6915 37.0578 66.741 37.0578 66.7658C37.0578 66.7905 36.934 74.2447 36.1418 77.4394C33.2703 75.5325 30.4482 73.9228 27.7994 72.5359C28.1708 68.8955 27.5766 65.057 27.4776 64.4626C28.8887 64.6112 30.2997 64.8341 31.686 65.1313C33.5178 65.5028 35.3249 66.0228 37.0825 66.6667ZM26.834 64.3884C26.834 64.4131 26.834 64.4379 26.834 64.4626C26.834 64.4626 27.5271 68.4002 27.2053 72.214C24.3338 70.7777 21.6602 69.5889 19.3085 68.6479C19.2838 66.6419 18.8382 64.636 18.7392 64.2893C21.4622 64.1159 24.1605 64.1407 26.834 64.3884ZM18.1203 64.3388C18.1203 64.3636 18.1203 64.3636 18.1203 64.3884C18.1203 64.3884 18.6154 66.3695 18.6649 68.4002C14.3823 66.741 11.2384 65.899 9.97593 65.5771C11.2632 65.2799 12.5504 65.0322 13.8377 64.8341C15.2735 64.636 16.7093 64.4626 18.1203 64.3388Z" fill="#DAD5EB"/>
<path fill-rule="evenodd" clip-rule="evenodd" d="M61.7384 92.2735C60.4759 90.1189 57.9757 86.85 53.3465 83.581C45.4993 78.0337 39.7066 70.6786 42.6524 66.3448C45.4993 62.1595 56.6142 70.0347 65.3774 89.797L61.7384 92.2735Z" fill="#C0B7DB"/>
<path fill-rule="evenodd" clip-rule="evenodd" d="M44.5833 68.2021C44.4348 68.1278 44.3605 67.9297 44.4348 67.7563C44.509 67.6077 44.7071 67.5334 44.8804 67.6077C44.8804 67.6077 45.8458 68.103 47.3311 69.1431L46.4152 67.5086C46.3657 67.4096 46.3904 67.261 46.4894 67.2115C46.5885 67.1619 46.737 67.1867 46.7865 67.2858L48.1233 69.7127C48.8164 70.208 49.5838 70.8271 50.4007 71.5453L49.6581 69.4155C49.6085 69.2917 49.6828 69.1679 49.7818 69.1431C49.9056 69.0936 50.0294 69.1679 50.0541 69.2669L51.0443 72.1149C51.886 72.8826 52.8019 73.7246 53.7179 74.6904L53.1485 72.8083C53.1237 72.6845 53.1732 72.5607 53.297 72.5359C53.4208 72.5111 53.5446 72.5607 53.5693 72.6845L54.411 75.4086C55.3517 76.4487 56.3171 77.6127 57.2826 78.9004L56.936 77.0431C56.9112 76.9192 56.9855 76.8202 57.1093 76.7954C57.233 76.7707 57.3321 76.8449 57.3568 76.9688L57.8767 79.7177C58.7678 80.9559 59.6343 82.2932 60.4759 83.7295L60.5254 82.6151C60.5254 82.4913 60.6245 82.3922 60.7482 82.417C60.872 82.417 60.971 82.5161 60.9463 82.6399L60.872 84.4477C61.4909 85.5621 62.1098 86.7508 62.6791 87.9891L62.7534 86.8747C62.7534 86.7508 62.8772 86.6766 62.9762 86.6766C63.1 86.6766 63.1742 86.8004 63.1742 86.8994L63.0257 88.8063C63.298 89.4254 63.5703 90.0693 63.8178 90.7132L63.2732 91.0847C63.0257 90.4408 62.7534 89.7969 62.4811 89.1778C61.986 88.9549 60.7978 88.4844 60.1789 88.4844C60.0551 88.4844 59.9561 88.3853 59.9561 88.2615C59.9561 88.1377 60.0551 88.0386 60.1789 88.0386C60.7235 88.0386 61.6147 88.3606 62.2335 88.5834C62.0107 88.0881 61.7879 87.6176 61.5651 87.1471C61.0453 86.9737 59.7828 86.627 58.7926 86.6518C58.6688 86.6518 58.5698 86.5527 58.5698 86.4537C58.5698 86.3298 58.6688 86.2308 58.7678 86.2308C59.6095 86.206 60.6492 86.4289 61.2928 86.627C60.8225 85.686 60.3274 84.7697 59.8076 83.9029C59.0154 83.8286 56.5399 83.6553 55.4012 83.9029C55.2774 83.9277 55.1784 83.8534 55.1536 83.7295C55.1289 83.6057 55.2031 83.5067 55.3269 83.4819C56.3914 83.259 58.5451 83.3581 59.56 83.4324C59.0154 82.5161 58.446 81.6493 57.8767 80.8321C57.1093 80.7578 54.5843 80.5349 52.6286 80.9064C52.5049 80.9311 52.4058 80.8568 52.3811 80.733C52.3563 80.6092 52.4306 80.5101 52.5544 80.4854C54.312 80.1387 56.5152 80.2625 57.5549 80.3615C57.2826 79.9653 56.9855 79.5691 56.7132 79.1976C55.9458 79.0738 53.2723 78.7023 50.4007 79.1481C50.2769 79.1728 50.1779 79.0738 50.1532 78.9747C50.1284 78.8509 50.2274 78.7518 50.3264 78.7271C52.8514 78.3308 55.2031 78.5537 56.3171 78.7271C55.2774 77.365 54.213 76.1515 53.198 75.0867C52.2326 75.161 48.4451 75.5077 46.5637 76.0525C46.4399 76.0772 46.3161 76.0277 46.2914 75.9039C46.2666 75.7801 46.3161 75.6562 46.4399 75.6315C48.1728 75.1114 51.4652 74.7895 52.8019 74.6904C52.0345 73.898 51.2919 73.1798 50.574 72.5607C49.6581 72.734 46.2419 73.3531 45.4002 73.5512C45.2764 73.576 45.1774 73.5017 45.1279 73.4027C45.1032 73.2788 45.1774 73.1798 45.2764 73.1302C46.0191 72.9569 48.8907 72.4121 50.1284 72.1892C49.1877 71.3719 48.3213 70.6785 47.5539 70.1337C46.6875 70.3566 44.6081 70.8766 44.113 71.0252C43.9892 71.05 43.8654 71.0005 43.8407 70.8767C43.8159 70.7528 43.8654 70.629 43.9892 70.6042C44.4348 70.4557 46.1181 70.0346 47.1083 69.787C45.5983 68.7221 44.5833 68.2268 44.5833 68.2021Z" fill="#DAD5EB"/>
<path fill-rule="evenodd" clip-rule="evenodd" d="M130.607 10.4755H103.995C102.064 10.4755 100.48 12.0604 100.48 13.9921V30.8073V31.8722V41.1095C100.48 41.2828 100.579 41.4067 100.728 41.4809C100.876 41.5305 101.049 41.5057 101.148 41.4067L107.139 35.4136H130.631C132.562 35.4136 134.147 33.8286 134.147 31.897V13.9921C134.122 12.0604 132.538 10.4755 130.607 10.4755Z" fill="#EFEEF8"/>
<path fill-rule="evenodd" clip-rule="evenodd" d="M135.83 95.7653C135.83 95.7653 150.46 87.7167 149.272 69.3908C149.272 69.3908 149.222 68.9203 149.544 68.8955C149.866 68.8708 154.966 83.6801 144.172 94.6261L135.83 95.7653Z" fill="#EFEEF8"/>
<path fill-rule="evenodd" clip-rule="evenodd" d="M129.121 8.89066H102.485C100.554 8.89066 98.9697 10.4756 98.9697 12.4072V29.2225V30.2874V39.5246C98.9697 39.698 99.0687 39.8218 99.2173 39.8961C99.3658 39.9456 99.5391 39.9209 99.6381 39.8218L105.629 33.8287H129.121C131.052 33.8287 132.636 32.2438 132.636 30.3122V12.4072C132.636 10.4756 131.052 8.89066 129.121 8.89066Z" fill="#4F699B" fill-opacity="0.5"/>
<path fill-rule="evenodd" clip-rule="evenodd" d="M103.871 29.2721H117.833C118.477 29.2721 118.997 28.752 118.997 28.1081V17.5336C118.997 16.8897 118.477 16.3696 117.833 16.3696H117.264V15.8248C117.264 15.6515 117.115 15.5029 116.942 15.5029H112.734C112.56 15.5029 112.412 15.6515 112.412 15.8248V16.3696H103.871C103.228 16.3696 102.708 16.8897 102.708 17.5336V28.1329C102.733 28.752 103.253 29.2721 103.871 29.2721Z" fill="#F9B532"/>
<path fill-rule="evenodd" clip-rule="evenodd" d="M113.625 29.272H104.812C104.292 29.272 103.872 28.851 103.872 28.331V19.3414C103.872 18.8213 104.292 18.4003 104.812 18.4003H113.625C114.145 18.4003 114.566 18.8213 114.566 19.3414V28.3557C114.566 28.851 114.145 29.272 113.625 29.272Z" fill="white"/>
<path fill-rule="evenodd" clip-rule="evenodd" d="M117.239 29.272H127.586C128.304 29.272 128.874 28.7024 128.874 27.9842V13.8436C128.874 13.1254 128.304 12.5558 127.586 12.5558H117.239C116.521 12.5558 115.952 13.1254 115.952 13.8436V27.9842C115.952 28.7024 116.546 29.272 117.239 29.272Z" fill="white"/>
<path fill-rule="evenodd" clip-rule="evenodd" d="M117.239 29.272H119.318C119.962 29.272 120.705 28.752 120.977 28.1081L125.037 18.9946C125.309 18.3508 125.037 17.8307 124.393 17.8307H123.725L123.972 17.2611C124.071 17.0382 123.972 16.8401 123.749 16.8401H119.046C118.823 16.8401 118.551 17.0382 118.427 17.2611L118.18 17.8307H115.952V27.9843C115.952 28.7024 116.546 29.272 117.239 29.272Z" fill="#EFEEF8"/>
<path fill-rule="evenodd" clip-rule="evenodd" d="M105.258 29.272H118.155C118.799 29.272 119.541 28.752 119.814 28.1081L123.874 18.9946C124.146 18.3508 123.874 17.8307 123.23 17.8307H122.562L122.809 17.2611C122.908 17.0382 122.809 16.8401 122.586 16.8401H117.883C117.66 16.8401 117.388 17.0382 117.264 17.2611L117.016 17.8307H110.357C109.714 17.8307 108.971 18.3508 108.699 18.9946L104.639 28.1081C104.342 28.752 104.639 29.272 105.258 29.272Z" fill="#FCC749"/>
<path fill-rule="evenodd" clip-rule="evenodd" d="M111.818 20.5548C112.684 19.688 113.848 19.2422 114.987 19.2422C116.125 19.2422 117.289 19.688 118.155 20.5548C119.022 21.4215 119.467 22.5855 119.467 23.7247C119.467 24.8638 119.022 26.0278 118.155 26.8946C117.289 27.7613 116.125 28.2071 114.987 28.2071C113.848 28.2071 112.684 27.7613 111.818 26.8946C110.951 26.0278 110.506 24.8638 110.506 23.7247C110.481 22.5855 110.927 21.4463 111.818 20.5548ZM114.987 19.8861C113.996 19.8861 113.006 20.2576 112.263 21.0253C111.521 21.7683 111.149 22.7588 111.149 23.7494C111.149 24.74 111.521 25.7306 112.263 26.4736C113.006 27.2165 113.996 27.6127 114.987 27.6127C115.977 27.6127 116.967 27.2413 117.71 26.4736C118.452 25.7306 118.848 24.74 118.848 23.7494C118.848 22.7588 118.477 21.7683 117.71 21.0253C116.942 20.2576 115.977 19.8861 114.987 19.8861Z" fill="#170839"/>
<path fill-rule="evenodd" clip-rule="evenodd" d="M117.71 26.9193C117.586 26.7955 117.586 26.5974 117.71 26.4735C117.833 26.3497 118.031 26.3497 118.155 26.4735L119.22 27.5384C119.343 27.6622 119.343 27.8604 119.22 27.9842C119.096 28.108 118.898 28.108 118.774 27.9842L117.71 26.9193Z" fill="#170839"/>
<path fill-rule="evenodd" clip-rule="evenodd" d="M118.798 28.4795C118.551 28.2319 118.551 27.8109 118.798 27.5632C119.046 27.3156 119.467 27.3156 119.714 27.5632L124.616 32.4666C124.863 32.7143 124.863 33.1353 124.616 33.3829C124.368 33.6306 123.947 33.6306 123.7 33.3829L118.798 28.4795Z" fill="#170839"/>
<path fill-rule="evenodd" clip-rule="evenodd" d="M117.19 21.5206C117.115 21.4463 117.115 21.2977 117.19 21.2234C117.264 21.1492 117.413 21.1492 117.487 21.2234C117.833 21.5702 118.081 21.9664 118.254 22.3874C118.428 22.8332 118.527 23.2789 118.527 23.7495C118.527 24.0714 118.477 24.4181 118.378 24.74C118.353 24.8639 118.229 24.9134 118.106 24.8886C117.982 24.8639 117.932 24.74 117.957 24.6162C118.031 24.3438 118.081 24.0466 118.081 23.7495C118.081 23.3285 118.007 22.9322 117.833 22.536C117.734 22.1645 117.512 21.8178 117.19 21.5206ZM117.611 25.4335C117.685 25.3344 117.809 25.3096 117.908 25.3592C118.007 25.4335 118.031 25.5573 117.982 25.6563C117.908 25.7554 117.833 25.8545 117.759 25.9535C117.685 26.0526 117.586 26.1516 117.512 26.2507C117.437 26.325 117.289 26.325 117.215 26.2507C117.14 26.1764 117.14 26.0278 117.215 25.9535C117.289 25.8792 117.363 25.7802 117.437 25.7059C117.487 25.6068 117.561 25.5325 117.611 25.4335ZM112.759 25.9535C112.833 26.0278 112.833 26.1764 112.759 26.2507C112.684 26.325 112.536 26.325 112.462 26.2507C112.115 25.904 111.867 25.5078 111.694 25.0867C111.521 24.641 111.422 24.1952 111.422 23.7247C111.422 23.5018 111.447 23.2789 111.471 23.0808C111.521 22.8579 111.57 22.6598 111.645 22.4617C111.694 22.3626 111.818 22.2883 111.917 22.3379C112.016 22.3874 112.09 22.5112 112.041 22.6103C111.966 22.7836 111.917 22.9817 111.892 23.1551C111.867 23.3532 111.843 23.5266 111.843 23.7247C111.843 24.1457 111.917 24.5419 112.09 24.9382C112.239 25.3096 112.462 25.6563 112.759 25.9535ZM112.437 21.8921C112.363 21.9912 112.239 22.0159 112.14 21.9416C112.041 21.8673 112.016 21.7435 112.09 21.6444C112.14 21.5702 112.214 21.4959 112.264 21.4216C112.338 21.3473 112.387 21.273 112.437 21.2234C112.511 21.1492 112.66 21.1492 112.734 21.2234C112.808 21.2977 112.808 21.4463 112.734 21.5206C112.66 21.5949 112.61 21.6444 112.561 21.694C112.536 21.7683 112.486 21.8426 112.437 21.8921Z" fill="white"/>
<path fill-rule="evenodd" clip-rule="evenodd" d="M117.338 13.8436H127.488C127.612 13.8436 127.735 13.9426 127.735 14.0912C127.735 14.215 127.636 14.3389 127.488 14.3389H117.338C117.215 14.3389 117.091 14.2398 117.091 14.0912C117.116 13.9426 117.215 13.8436 117.338 13.8436Z" fill="#2C2071"/>
<path fill-rule="evenodd" clip-rule="evenodd" d="M117.338 15.3047H127.488C127.612 15.3047 127.735 15.4038 127.735 15.5524C127.735 15.6762 127.636 15.8 127.488 15.8H117.338C117.215 15.8 117.091 15.701 117.091 15.5524C117.116 15.4285 117.215 15.3047 117.338 15.3047Z" fill="#2C2071"/>
<path fill-rule="evenodd" clip-rule="evenodd" d="M125.582 16.9391H127.488C127.611 16.9391 127.735 17.0382 127.735 17.1868C127.735 17.3106 127.636 17.4344 127.488 17.4344H125.582C125.458 17.4344 125.334 17.3354 125.334 17.1868C125.334 17.0382 125.458 16.9391 125.582 16.9391Z" fill="#2C2071"/>
<path fill-rule="evenodd" clip-rule="evenodd" d="M125.582 18.5984H127.488C127.611 18.5984 127.735 18.6975 127.735 18.8461C127.735 18.9699 127.636 19.0937 127.488 19.0937H125.582C125.458 19.0937 125.334 18.9947 125.334 18.8461C125.334 18.7223 125.458 18.5984 125.582 18.5984Z" fill="#2C2071"/>
<path fill-rule="evenodd" clip-rule="evenodd" d="M125.582 20.2824H127.488C127.611 20.2824 127.735 20.3815 127.735 20.5301C127.735 20.6539 127.636 20.7777 127.488 20.7777H125.582C125.458 20.7777 125.334 20.6786 125.334 20.5301C125.334 20.3815 125.458 20.2824 125.582 20.2824Z" fill="#2C2071"/>
<path fill-rule="evenodd" clip-rule="evenodd" d="M125.582 21.9417H127.488C127.611 21.9417 127.735 22.0408 127.735 22.1894C127.735 22.3132 127.636 22.437 127.488 22.437H125.582C125.458 22.437 125.334 22.3379 125.334 22.1894C125.334 22.0655 125.458 21.9417 125.582 21.9417Z" fill="#2C2071"/>
<path fill-rule="evenodd" clip-rule="evenodd" d="M125.582 23.6257H127.488C127.611 23.6257 127.735 23.7247 127.735 23.8733C127.735 23.9971 127.636 24.121 127.488 24.121H125.582C125.458 24.121 125.334 24.0219 125.334 23.8733C125.334 23.7247 125.458 23.6257 125.582 23.6257Z" fill="#2C2071"/>
<path fill-rule="evenodd" clip-rule="evenodd" d="M125.582 25.2849H127.488C127.611 25.2849 127.735 25.3839 127.735 25.5325C127.735 25.6563 127.636 25.7802 127.488 25.7802H125.582C125.458 25.7802 125.334 25.6811 125.334 25.5325C125.334 25.3839 125.458 25.2849 125.582 25.2849Z" fill="#2C2071"/>
<path fill-rule="evenodd" clip-rule="evenodd" d="M122.636 26.9689H127.488C127.611 26.9689 127.735 27.068 127.735 27.2166C127.735 27.3404 127.636 27.4642 127.488 27.4642H122.636C122.512 27.4642 122.388 27.3652 122.388 27.2166C122.388 27.068 122.512 26.9689 122.636 26.9689Z" fill="#2C2071"/>
<path fill-rule="evenodd" clip-rule="evenodd" d="M123.106 25.2849H124.542C124.666 25.2849 124.789 25.3839 124.789 25.5325C124.789 25.6563 124.69 25.7802 124.542 25.7802H123.106C122.982 25.7802 122.858 25.6811 122.858 25.5325C122.883 25.3839 122.982 25.2849 123.106 25.2849Z" fill="#2C2071"/>
<path fill-rule="evenodd" clip-rule="evenodd" d="M123.75 23.6257H124.467C124.591 23.6257 124.715 23.7247 124.715 23.8733C124.715 23.9971 124.616 24.121 124.467 24.121H123.75C123.626 24.121 123.502 24.0219 123.502 23.8733C123.527 23.7247 123.626 23.6257 123.75 23.6257Z" fill="#2C2071"/>
<path fill-rule="evenodd" clip-rule="evenodd" d="M124.27 21.9417H124.789C124.913 21.9417 125.037 22.0408 125.037 22.1894C125.037 22.3132 124.938 22.437 124.789 22.437H124.27C124.146 22.437 124.022 22.3379 124.022 22.1894C124.022 22.0655 124.121 21.9417 124.27 21.9417Z" fill="#2C2071"/>
<path fill-rule="evenodd" clip-rule="evenodd" d="M114.343 45.3443H145.088C145.955 45.3443 146.672 46.0625 146.672 46.9292V62.5806C146.672 63.4473 145.955 64.1655 145.088 64.1655H114.343C113.476 64.1655 112.758 63.4473 112.758 62.5806V46.9292C112.758 46.0625 113.476 45.3443 114.343 45.3443Z" fill="white"/>
<path fill-rule="evenodd" clip-rule="evenodd" d="M114.343 45.3443H145.088C145.955 45.3443 146.672 46.0625 146.672 46.9292V49.1333C146.672 49.3809 146.474 49.5791 146.227 49.5791H113.204C112.956 49.5791 112.758 49.3809 112.758 49.1333V46.9292C112.758 46.0625 113.476 45.3443 114.343 45.3443Z" fill="#95E6F1"/>
<path fill-rule="evenodd" clip-rule="evenodd" d="M115.333 51.3621H123.948C124.121 51.3621 124.27 51.5107 124.27 51.6841C124.27 51.8574 124.121 52.006 123.948 52.006H115.333C115.16 52.006 115.011 51.8574 115.011 51.6841C115.011 51.5107 115.16 51.3621 115.333 51.3621ZM115.333 60.9461H123.948C124.121 60.9461 124.27 61.0947 124.27 61.268C124.27 61.4414 124.121 61.59 123.948 61.59H115.333C115.16 61.59 115.011 61.4414 115.011 61.268C115.011 61.0947 115.16 60.9461 115.333 60.9461ZM115.333 59.2125H117.264C117.437 59.2125 117.586 59.3611 117.586 59.5345C117.586 59.7078 117.437 59.8564 117.264 59.8564H115.333C115.16 59.8564 115.011 59.7078 115.011 59.5345C115.011 59.3611 115.16 59.2125 115.333 59.2125ZM118.427 59.2125H118.724C118.898 59.2125 119.046 59.3611 119.046 59.5345C119.046 59.7078 118.898 59.8564 118.724 59.8564H118.427C118.254 59.8564 118.106 59.7078 118.106 59.5345C118.081 59.3611 118.229 59.2125 118.427 59.2125ZM123.948 59.2125H120.111C119.937 59.2125 119.789 59.3611 119.789 59.5345C119.789 59.7078 119.937 59.8564 120.111 59.8564H123.948C124.121 59.8564 124.27 59.7078 124.27 59.5345C124.27 59.3611 124.121 59.2125 123.948 59.2125ZM115.333 57.7514H123.948C124.121 57.7514 124.27 57.9 124.27 58.0734C124.27 58.2467 124.121 58.3953 123.948 58.3953H115.333C115.16 58.3953 115.011 58.2467 115.011 58.0734C115.011 57.9 115.16 57.7514 115.333 57.7514ZM123.948 56.0179H122.017C121.844 56.0179 121.695 56.1665 121.695 56.3398C121.695 56.5132 121.844 56.6618 122.017 56.6618H123.948C124.121 56.6618 124.27 56.5132 124.27 56.3398C124.27 56.1665 124.121 56.0179 123.948 56.0179ZM120.853 56.0179H120.556C120.383 56.0179 120.235 56.1665 120.235 56.3398C120.235 56.5132 120.383 56.6618 120.556 56.6618H120.853C121.027 56.6618 121.175 56.5132 121.175 56.3398C121.2 56.1665 121.051 56.0179 120.853 56.0179ZM115.333 56.0179H119.17C119.343 56.0179 119.492 56.1665 119.492 56.3398C119.492 56.5132 119.343 56.6618 119.17 56.6618H115.333C115.16 56.6618 115.011 56.5132 115.011 56.3398C115.011 56.1665 115.16 56.0179 115.333 56.0179ZM115.333 54.5568H123.948C124.121 54.5568 124.27 54.7054 124.27 54.8787C124.27 55.0521 124.121 55.2007 123.948 55.2007H115.333C115.16 55.2007 115.011 55.0521 115.011 54.8787C115.011 54.7054 115.16 54.5568 115.333 54.5568ZM115.333 52.8232H117.264C117.437 52.8232 117.586 52.9718 117.586 53.1452C117.586 53.3185 117.437 53.4671 117.264 53.4671H115.333C115.16 53.4671 115.011 53.3185 115.011 53.1452C115.011 52.9718 115.16 52.8232 115.333 52.8232ZM118.427 52.8232H118.724C118.898 52.8232 119.046 52.9718 119.046 53.1452C119.046 53.3185 118.898 53.4671 118.724 53.4671H118.427C118.254 53.4671 118.106 53.3185 118.106 53.1452C118.081 52.9718 118.229 52.8232 118.427 52.8232ZM123.948 52.8232H120.111C119.937 52.8232 119.789 52.9718 119.789 53.1452C119.789 53.3185 119.937 53.4671 120.111 53.4671H123.948C124.121 53.4671 124.27 53.3185 124.27 53.1452C124.27 52.9718 124.121 52.8232 123.948 52.8232Z" fill="#95E6F1"/>
<path fill-rule="evenodd" clip-rule="evenodd" d="M129.468 51.3621H144.048C144.221 51.3621 144.37 51.5107 144.37 51.6841C144.37 51.8574 144.221 52.006 144.048 52.006H129.468C129.294 52.006 129.146 51.8574 129.146 51.6841C129.121 51.5107 129.27 51.3621 129.468 51.3621ZM129.468 60.9461H144.048C144.221 60.9461 144.37 61.0947 144.37 61.268C144.37 61.4414 144.221 61.59 144.048 61.59H129.468C129.294 61.59 129.146 61.4414 129.146 61.268C129.121 61.0947 129.27 60.9461 129.468 60.9461ZM129.468 59.2125H133.057C133.23 59.2125 133.379 59.3611 133.379 59.5345C133.379 59.7078 133.23 59.8564 133.057 59.8564H129.468C129.294 59.8564 129.146 59.7078 129.146 59.5345C129.121 59.3611 129.27 59.2125 129.468 59.2125ZM134.542 59.2125H135.458C135.632 59.2125 135.78 59.3611 135.78 59.5345C135.78 59.7078 135.632 59.8564 135.458 59.8564H134.542C134.369 59.8564 134.221 59.7078 134.221 59.5345C134.196 59.3611 134.344 59.2125 134.542 59.2125ZM144.048 59.2125H137.29C137.117 59.2125 136.968 59.3611 136.968 59.5345C136.968 59.7078 137.117 59.8564 137.29 59.8564H144.048C144.221 59.8564 144.37 59.7078 144.37 59.5345C144.37 59.3611 144.221 59.2125 144.048 59.2125ZM129.468 57.7514H144.048C144.221 57.7514 144.37 57.9 144.37 58.0734C144.37 58.2467 144.221 58.3953 144.048 58.3953H129.468C129.294 58.3953 129.146 58.2467 129.146 58.0734C129.121 57.9 129.27 57.7514 129.468 57.7514ZM144.048 56.0179H140.459C140.285 56.0179 140.137 56.1665 140.137 56.3398C140.137 56.5132 140.285 56.6618 140.459 56.6618H144.048C144.221 56.6618 144.37 56.5132 144.37 56.3398C144.37 56.1665 144.221 56.0179 144.048 56.0179ZM138.973 56.0179H138.058C137.884 56.0179 137.736 56.1665 137.736 56.3398C137.736 56.5132 137.884 56.6618 138.058 56.6618H138.973C139.147 56.6618 139.295 56.5132 139.295 56.3398C139.295 56.1665 139.147 56.0179 138.973 56.0179ZM129.468 56.0179H136.226C136.399 56.0179 136.547 56.1665 136.547 56.3398C136.547 56.5132 136.399 56.6618 136.226 56.6618H129.468C129.294 56.6618 129.146 56.5132 129.146 56.3398C129.121 56.1665 129.27 56.0179 129.468 56.0179ZM129.468 54.5568H144.048C144.221 54.5568 144.37 54.7054 144.37 54.8787C144.37 55.0521 144.221 55.2007 144.048 55.2007H129.468C129.294 55.2007 129.146 55.0521 129.146 54.8787C129.121 54.7054 129.27 54.5568 129.468 54.5568ZM129.468 52.8232H133.057C133.23 52.8232 133.379 52.9718 133.379 53.1452C133.379 53.3185 133.23 53.4671 133.057 53.4671H129.468C129.294 53.4671 129.146 53.3185 129.146 53.1452C129.121 52.9718 129.27 52.8232 129.468 52.8232ZM134.542 52.8232H135.458C135.632 52.8232 135.78 52.9718 135.78 53.1452C135.78 53.3185 135.632 53.4671 135.458 53.4671H134.542C134.369 53.4671 134.221 53.3185 134.221 53.1452C134.196 52.9718 134.344 52.8232 134.542 52.8232ZM144.048 52.8232H137.29C137.117 52.8232 136.968 52.9718 136.968 53.1452C136.968 53.3185 137.117 53.4671 137.29 53.4671H144.048C144.221 53.4671 144.37 53.3185 144.37 53.1452C144.37 52.9718 144.221 52.8232 144.048 52.8232Z" fill="#DAD5EB"/>
<path fill-rule="evenodd" clip-rule="evenodd" d="M138.503 48.217C138.924 48.217 139.271 47.8703 139.271 47.4493C139.271 47.0283 138.924 46.6816 138.503 46.6816C138.082 46.6816 137.736 47.0283 137.736 47.4493C137.736 47.8703 138.082 48.217 138.503 48.217Z" fill="white"/>
<path fill-rule="evenodd" clip-rule="evenodd" d="M141.251 48.217C141.672 48.217 142.019 47.8703 142.019 47.4493C142.019 47.0283 141.672 46.6816 141.251 46.6816C140.83 46.6816 140.484 47.0283 140.484 47.4493C140.484 47.8703 140.83 48.217 141.251 48.217Z" fill="white"/>
<path fill-rule="evenodd" clip-rule="evenodd" d="M144.024 48.217C144.445 48.217 144.791 47.8703 144.791 47.4493C144.791 47.0283 144.445 46.6816 144.024 46.6816C143.603 46.6816 143.256 47.0283 143.256 47.4493C143.256 47.8703 143.603 48.217 144.024 48.217Z" fill="white"/>
<path fill-rule="evenodd" clip-rule="evenodd" d="M145.98 11.8871C145.658 11.5652 145.212 11.3671 144.742 11.3671C144.247 11.3671 143.826 11.5652 143.504 11.8871C143.182 12.2091 142.984 12.6548 142.984 13.1253C142.984 13.6206 143.182 14.0416 143.504 14.3636C143.826 14.6855 144.271 14.8836 144.742 14.8836C145.237 14.8836 145.658 14.6855 145.98 14.3636C146.301 14.0416 146.499 13.5959 146.499 13.1253C146.499 12.6548 146.301 12.2091 145.98 11.8871ZM145.608 10.1536C145.856 10.2279 146.079 10.3269 146.301 10.4508C146.524 10.5746 146.722 10.7232 146.896 10.8965C146.92 10.9213 146.995 10.9461 147.019 10.9213L147.836 10.4508C147.886 10.426 147.935 10.426 147.985 10.426C148.034 10.4508 148.084 10.4755 148.108 10.5251L148.678 11.5156C148.703 11.5652 148.703 11.6147 148.703 11.6642C148.678 11.7138 148.653 11.7633 148.604 11.7881L147.787 12.2586C147.737 12.2833 147.712 12.3329 147.737 12.3824C147.762 12.5062 147.787 12.6301 147.811 12.7539C147.836 12.8777 147.836 13.0015 147.836 13.1253C147.836 13.2492 147.836 13.373 147.811 13.4968C147.787 13.6206 147.762 13.7445 147.737 13.8683C147.737 13.9178 147.762 13.9673 147.787 13.9921L148.604 14.4626C148.653 14.4874 148.678 14.5369 148.703 14.5865C148.727 14.636 148.703 14.6855 148.678 14.7351L148.108 15.7256C148.084 15.7752 148.034 15.7999 147.985 15.8247C147.935 15.8495 147.886 15.8247 147.836 15.7999L147.044 15.3542C146.995 15.3294 146.945 15.3294 146.92 15.3789C146.747 15.5523 146.524 15.7009 146.326 15.8247C146.103 15.9485 145.881 16.0476 145.633 16.1219C145.583 16.1466 145.559 16.1714 145.559 16.2209V17.162C145.559 17.2115 145.534 17.2611 145.509 17.3106C145.484 17.3354 145.41 17.3601 145.361 17.3601H144.197C144.148 17.3601 144.098 17.3354 144.049 17.3106C144.024 17.2858 143.999 17.2115 143.999 17.162V16.2209C143.999 16.1714 143.974 16.1219 143.925 16.1219C143.677 16.0476 143.455 15.9485 143.232 15.8247C143.009 15.7009 142.811 15.5523 142.638 15.3789C142.613 15.3542 142.539 15.3294 142.514 15.3789L141.697 15.8495C141.647 15.8742 141.598 15.8742 141.548 15.8742C141.499 15.8495 141.449 15.8247 141.425 15.7752L140.855 14.7846C140.831 14.7351 140.831 14.6855 140.831 14.636C140.855 14.5865 140.88 14.5369 140.93 14.5122L141.746 14.0416C141.796 14.0169 141.796 13.9673 141.796 13.9178C141.771 13.794 141.746 13.6702 141.722 13.5463C141.697 13.4225 141.697 13.2987 141.697 13.1749C141.697 13.0511 141.697 12.9272 141.722 12.8034C141.746 12.6796 141.771 12.5558 141.796 12.4319C141.796 12.3824 141.771 12.3329 141.746 12.3081L140.93 11.8376C140.88 11.8128 140.855 11.7633 140.831 11.7138C140.806 11.6642 140.831 11.6147 140.855 11.5652L141.425 10.5746C141.449 10.5251 141.499 10.5003 141.548 10.4755C141.598 10.4508 141.647 10.4755 141.697 10.5003L142.514 10.9708C142.563 10.9956 142.613 10.9956 142.638 10.9461C142.811 10.7727 143.009 10.6241 143.232 10.5003C143.455 10.3765 143.677 10.2774 143.925 10.2031C143.974 10.1783 143.999 10.1536 143.999 10.1041V9.16299C143.999 9.11346 144.024 9.06393 144.049 9.0144C144.073 8.98964 144.148 8.96487 144.197 8.96487H145.361C145.41 8.96487 145.46 8.98964 145.509 9.0144C145.534 9.03917 145.559 9.11346 145.559 9.16299V10.1041C145.534 10.1041 145.559 10.1288 145.608 10.1536Z" fill="#DAD5EB"/>
<path fill-rule="evenodd" clip-rule="evenodd" d="M148.306 27.3898C147.96 27.0431 147.539 26.7459 147.068 26.5726C146.623 26.3744 146.128 26.2754 145.608 26.2754C145.088 26.2754 144.593 26.3744 144.147 26.5726C143.677 26.7707 143.256 27.0431 142.91 27.3898C142.563 27.7365 142.266 28.1575 142.093 28.628C141.919 29.0738 141.796 29.5691 141.796 30.0892C141.796 30.6092 141.895 31.1045 142.093 31.5503C142.291 32.0208 142.563 32.4418 142.91 32.7885C143.256 33.1352 143.677 33.4324 144.147 33.6057C144.593 33.8039 145.088 33.9029 145.608 33.9029C146.128 33.9029 146.623 33.8039 147.068 33.6057C147.539 33.4076 147.96 33.1352 148.306 32.7885C148.653 32.4418 148.95 32.0208 149.123 31.5503C149.321 31.1045 149.42 30.6092 149.42 30.0892C149.42 29.5691 149.321 29.0738 149.123 28.628C148.95 28.1575 148.653 27.7365 148.306 27.3898ZM146.945 26.8945C147.365 27.0679 147.737 27.3155 148.059 27.6374C148.38 27.9594 148.628 28.3309 148.801 28.7519C148.974 29.1481 149.073 29.5939 149.073 30.0644C149.073 30.5349 148.974 30.9807 148.801 31.3769C148.628 31.7979 148.38 32.1694 148.059 32.4913C147.737 32.8133 147.365 33.0609 146.945 33.2343C146.548 33.4076 146.103 33.5067 145.633 33.5067C145.162 33.5067 144.717 33.4076 144.321 33.2343C143.9 33.0609 143.528 32.8133 143.207 32.4913C142.885 32.1694 142.637 31.7979 142.464 31.3769C142.291 30.9807 142.192 30.5349 142.192 30.0644C142.192 29.5939 142.291 29.1481 142.464 28.7519C142.637 28.3309 142.885 27.9594 143.207 27.6374C143.528 27.3155 143.9 27.0679 144.321 26.8945C144.717 26.7211 145.162 26.6221 145.633 26.6221C146.103 26.6221 146.548 26.7211 146.945 26.8945ZM147.365 24.0961C147.613 24.1704 147.836 24.2447 148.059 24.3437C148.281 24.4428 148.504 24.5666 148.727 24.6904C148.95 24.8143 149.148 24.9628 149.371 25.1114C149.569 25.26 149.767 25.4334 149.94 25.6067C150.014 25.681 150.088 25.7058 150.163 25.7058C150.237 25.7058 150.336 25.7058 150.41 25.6563C150.98 25.3343 151.549 25.0124 152.094 24.6904C152.118 24.6657 152.143 24.6657 152.168 24.6657C152.193 24.6657 152.242 24.6657 152.267 24.6657C152.292 24.6657 152.316 24.6904 152.341 24.7152C152.366 24.74 152.391 24.7647 152.391 24.7895C152.787 25.4086 153.208 26.2011 153.579 26.845C153.604 26.8697 153.604 26.8945 153.604 26.944C153.604 26.9688 153.604 27.0183 153.604 27.0431C153.604 27.0679 153.579 27.0926 153.554 27.1174C153.529 27.1421 153.505 27.1669 153.48 27.1669C152.985 27.4889 152.341 27.8356 151.797 28.1327C151.722 28.1823 151.673 28.2566 151.623 28.3309C151.623 28.3556 151.598 28.3804 151.598 28.4051H151.574L151.623 28.5537C151.648 28.6776 151.673 28.8014 151.697 28.9252C151.722 29.049 151.747 29.1729 151.747 29.2967C151.772 29.4205 151.772 29.5443 151.772 29.6682C151.772 29.792 151.772 29.9158 151.772 30.0396C151.772 30.1634 151.772 30.312 151.772 30.4111C151.772 30.5349 151.747 30.6587 151.747 30.7826C151.722 30.9064 151.722 31.0302 151.697 31.154C151.673 31.2779 151.648 31.4017 151.623 31.5255C151.598 31.6246 151.623 31.6989 151.648 31.7979C151.673 31.8722 151.747 31.9465 151.821 31.996L153.307 32.8628L153.48 32.9619C153.505 32.9866 153.529 33.0114 153.554 33.0114C153.579 33.0362 153.579 33.0609 153.604 33.0857C153.604 33.1105 153.604 33.16 153.604 33.1847C153.604 33.2095 153.579 33.2343 153.579 33.2838L152.465 35.1907L152.366 35.3393C152.341 35.364 152.316 35.3888 152.316 35.4136C152.292 35.4383 152.267 35.4383 152.242 35.4631C152.217 35.4631 152.168 35.4631 152.143 35.4631C152.118 35.4631 152.094 35.4383 152.044 35.4383C151.499 35.0916 150.905 34.7945 150.361 34.4725C150.286 34.423 150.187 34.423 150.113 34.423C150.039 34.423 149.94 34.4725 149.89 34.522C149.717 34.6954 149.519 34.8687 149.321 35.0173C149.123 35.1659 148.9 35.3145 148.677 35.4383C148.455 35.5622 148.232 35.686 148.009 35.785C147.786 35.8841 147.539 35.9584 147.291 36.0327C147.217 36.0575 147.143 36.107 147.093 36.1813C147.044 36.2556 147.019 36.3299 147.019 36.4289V38.3606C147.019 38.3853 147.019 38.4349 146.994 38.4596C146.994 38.4844 146.969 38.5092 146.945 38.5339C146.92 38.5587 146.895 38.5835 146.87 38.5835C146.846 38.5835 146.821 38.6082 146.771 38.6082H144.395C144.37 38.6082 144.321 38.6082 144.296 38.5835C144.271 38.5835 144.246 38.5587 144.222 38.5339C144.197 38.5092 144.172 38.4844 144.172 38.4596C144.172 38.4349 144.147 38.4101 144.147 38.3606V36.4289C144.147 36.3299 144.123 36.2556 144.073 36.1813C144.023 36.107 143.949 36.0575 143.85 36.0327C143.603 35.9584 143.38 35.8841 143.157 35.785C142.934 35.686 142.711 35.5622 142.489 35.4383C142.266 35.3145 142.068 35.1659 141.845 35.0173C141.647 34.8687 141.449 34.6954 141.276 34.522C141.201 34.4477 141.127 34.423 141.028 34.423C140.929 34.423 140.855 34.4477 140.781 34.4973L139.122 35.4631C139.097 35.4879 139.073 35.4879 139.023 35.4879C138.998 35.4879 138.949 35.4879 138.924 35.4879C138.899 35.4879 138.874 35.4631 138.85 35.4383C138.825 35.4136 138.8 35.3888 138.8 35.364C138.404 34.6706 138.008 33.9772 137.612 33.3086C137.587 33.2838 137.587 33.259 137.587 33.2095C137.587 33.1847 137.587 33.1352 137.587 33.1105C137.587 33.0857 137.612 33.0609 137.637 33.0362C137.662 33.0114 137.686 32.9866 137.711 32.9866L139.394 32.0208C139.469 31.9713 139.518 31.897 139.568 31.8227C139.568 31.7979 139.592 31.7732 139.592 31.7484H139.642L139.592 31.575C139.568 31.4512 139.543 31.3274 139.518 31.2036C139.493 31.0797 139.469 30.9559 139.469 30.8321C139.444 30.7083 139.444 30.5844 139.444 30.4606C139.444 30.3368 139.444 30.213 139.444 30.0892C139.444 29.9653 139.444 29.8167 139.444 29.7177C139.444 29.5939 139.469 29.47 139.469 29.3462C139.493 29.2224 139.493 29.0986 139.518 28.9747C139.543 28.8509 139.568 28.7271 139.592 28.6033C139.617 28.5042 139.592 28.4299 139.568 28.3309C139.543 28.2566 139.469 28.1823 139.394 28.1327L137.736 27.1669C137.711 27.1421 137.686 27.1421 137.661 27.1174C137.637 27.0926 137.637 27.0679 137.612 27.0431C137.612 27.0183 137.612 26.9688 137.612 26.944C137.612 26.9193 137.637 26.8945 137.637 26.845C138.033 26.2506 138.454 25.4334 138.825 24.7895C138.85 24.7647 138.874 24.74 138.874 24.7152C138.899 24.6904 138.924 24.6904 138.949 24.6657C138.974 24.6657 139.023 24.6657 139.048 24.6657C139.073 24.6657 139.097 24.6904 139.147 24.6904L140.83 25.6563C140.904 25.7058 141.003 25.7058 141.078 25.7058C141.152 25.7058 141.251 25.6563 141.3 25.582C141.474 25.4086 141.672 25.2353 141.87 25.0867C142.068 24.9381 142.291 24.7895 142.489 24.6657C142.711 24.5418 142.934 24.418 143.157 24.319C143.38 24.2199 143.627 24.1456 143.875 24.0713C143.949 24.0466 144.023 23.997 144.073 23.9227C144.123 23.8484 144.147 23.7741 144.147 23.6751V21.7434C144.147 21.7187 144.147 21.6691 144.172 21.6444C144.172 21.6196 144.197 21.5948 144.222 21.5701C144.246 21.5453 144.271 21.5206 144.296 21.5206C144.321 21.5206 144.345 21.4958 144.395 21.4958H146.771C146.796 21.4958 146.846 21.4958 146.87 21.5206C146.895 21.5206 146.92 21.5453 146.945 21.5701C146.994 21.6196 147.019 21.6691 147.019 21.7434V23.6751C147.019 23.7741 147.044 23.8484 147.093 23.9227C147.192 24.0218 147.266 24.0713 147.365 24.0961ZM148.207 24.0218C148.455 24.1208 148.677 24.2447 148.925 24.3685C149.148 24.4923 149.371 24.6409 149.593 24.8143C149.816 24.9628 150.014 25.161 150.212 25.3343C150.212 25.3343 150.237 25.3343 150.237 25.3591H150.262C150.831 25.0371 151.4 24.7152 151.97 24.3685C152.044 24.3437 152.118 24.319 152.193 24.2942C152.267 24.2942 152.341 24.2942 152.415 24.319C152.49 24.3437 152.564 24.3685 152.613 24.418C152.663 24.4676 152.737 24.5171 152.762 24.5914C153.183 25.26 153.554 25.9782 153.95 26.6469C154 26.7211 154.024 26.7954 154.024 26.8697C154.024 26.944 154.024 27.0183 154 27.0926C153.975 27.1669 153.95 27.2412 153.901 27.2907C153.851 27.3403 153.802 27.4146 153.727 27.4393C153.183 27.7613 152.589 28.0832 152.044 28.4051L152.019 28.4299V28.4547L152.069 28.6033C152.094 28.6776 152.094 28.7519 152.118 28.8262C152.143 28.95 152.168 29.0986 152.168 29.2224C152.193 29.3462 152.193 29.4948 152.193 29.6186C152.193 29.7672 152.193 29.891 152.193 30.0149C152.193 30.1387 152.193 30.2873 152.193 30.4111C152.193 30.5597 152.168 30.6835 152.168 30.8073C152.143 30.9312 152.143 31.0797 152.118 31.2036C152.094 31.3274 152.069 31.476 152.044 31.5998V31.6246C152.044 31.6246 152.044 31.6493 152.069 31.6493C152.688 31.9713 153.307 32.3675 153.925 32.7142L153.901 32.739L153.925 32.7637C153.975 32.838 154 32.8876 154.024 32.9619C154.049 33.0362 154.049 33.1105 154.049 33.1847C154.049 33.259 154.024 33.3333 153.975 33.4076L152.688 35.6365L152.663 35.6117C152.638 35.6117 152.638 35.6365 152.613 35.6365C152.539 35.686 152.49 35.7108 152.415 35.7355C152.341 35.7603 152.267 35.7603 152.193 35.7603C152.118 35.7603 152.044 35.7355 151.97 35.686C151.4 35.3888 150.831 35.0173 150.286 34.7202H150.262C150.262 34.7202 150.237 34.7202 150.237 34.7449C150.039 34.943 149.841 35.1164 149.618 35.265C149.395 35.4136 149.173 35.5622 148.95 35.7107C148.727 35.8346 148.479 35.9584 148.232 36.0575C147.984 36.1565 147.737 36.2556 147.489 36.3299C147.489 36.3299 147.464 36.3299 147.464 36.3546V36.3794V38.311C147.464 38.3853 147.44 38.4596 147.415 38.5339C147.39 38.6082 147.341 38.6825 147.291 38.732C147.242 38.7816 147.167 38.8311 147.093 38.8559C147.019 38.8806 146.945 38.9054 146.87 38.9054H144.494C144.42 38.9054 144.345 38.8806 144.271 38.8559C144.197 38.8311 144.123 38.7816 144.073 38.732C144.023 38.6825 143.974 38.6082 143.949 38.5339C143.924 38.4596 143.9 38.3853 143.9 38.311V36.3794V36.3546L143.875 36.3299C143.627 36.2556 143.355 36.1565 143.132 36.0575C142.885 35.9584 142.662 35.8346 142.414 35.7107C142.192 35.5869 141.969 35.4383 141.746 35.265C141.523 35.1164 141.325 34.9183 141.127 34.7449C141.127 34.7449 141.102 34.7449 141.102 34.7202H141.078L139.394 35.686C139.32 35.7355 139.246 35.7603 139.172 35.7603C139.097 35.7603 139.023 35.7603 138.949 35.7355C138.874 35.7108 138.8 35.686 138.751 35.6365C138.701 35.5869 138.652 35.5374 138.602 35.4631C138.157 34.7449 137.736 33.9772 137.315 33.2343L137.34 33.2095C137.34 33.1847 137.34 33.16 137.34 33.16C137.34 33.0857 137.34 33.0114 137.364 32.9371C137.389 32.8628 137.414 32.7885 137.463 32.739C137.513 32.6894 137.562 32.6152 137.637 32.5904L139.32 31.6246L139.345 31.5998V31.575L139.295 31.4017C139.271 31.3274 139.271 31.2531 139.246 31.1788C139.221 31.055 139.196 30.9064 139.196 30.7826C139.172 30.6587 139.172 30.5102 139.172 30.3863C139.172 30.2377 139.172 30.1139 139.172 29.9901C139.172 29.8663 139.172 29.7177 139.172 29.5939C139.172 29.4453 139.196 29.3214 139.196 29.1976C139.221 29.0738 139.221 28.9252 139.246 28.8014C139.271 28.6776 139.295 28.529 139.32 28.4051V28.3804C139.32 28.3804 139.32 28.3556 139.295 28.3556L137.612 27.3898C137.538 27.3403 137.488 27.2907 137.439 27.2412C137.389 27.1669 137.364 27.1174 137.34 27.0431C137.315 26.9688 137.315 26.8945 137.315 26.8202C137.315 26.7459 137.34 26.6716 137.389 26.5973C137.785 25.8544 138.256 25.1114 138.676 24.3685L138.701 24.3933C138.726 24.3933 138.726 24.3685 138.751 24.3685C138.825 24.319 138.874 24.2942 138.949 24.2694C139.023 24.2447 139.097 24.2447 139.172 24.2447C139.246 24.2447 139.32 24.2694 139.394 24.319L139.518 24.3933L141.078 25.2848H141.102C141.102 25.2848 141.127 25.2848 141.127 25.26C141.325 25.0867 141.523 24.9133 141.746 24.74C141.969 24.5914 142.192 24.4428 142.414 24.2942C142.637 24.1704 142.885 24.0466 143.132 23.9475C143.38 23.8484 143.627 23.7494 143.875 23.6751C143.875 23.6751 143.9 23.6751 143.9 23.6503V23.6256V21.6939C143.9 21.6196 143.924 21.5453 143.949 21.471C143.974 21.3967 144.023 21.3224 144.073 21.2729C144.123 21.2234 144.197 21.1738 144.271 21.1491C144.345 21.1243 144.42 21.0995 144.494 21.0995H146.87C146.945 21.0995 147.019 21.1243 147.093 21.1491C147.167 21.1738 147.242 21.2234 147.291 21.2729C147.39 21.372 147.464 21.5205 147.464 21.6939V23.6256V23.6503L147.489 23.6751C147.712 23.8237 147.96 23.9227 148.207 24.0218Z" fill="#DAD5EB"/>
<path fill-rule="evenodd" clip-rule="evenodd" d="M62.0848 6.43887C62.0848 6.36458 62.1591 6.29028 62.2333 6.29028C62.3076 6.29028 62.3819 6.36458 62.3819 6.43887V7.13228C62.3819 7.20658 62.3076 7.28087 62.2333 7.28087C62.1591 7.28087 62.0848 7.20658 62.0848 7.13228V6.43887ZM61.0203 7.00846C60.9708 6.95893 60.9708 6.85987 61.0203 6.78558C61.0699 6.73605 61.1689 6.73605 61.2431 6.78558L61.7382 7.28087C61.7877 7.3304 61.7877 7.42946 61.7382 7.50376C61.6887 7.55329 61.5897 7.55329 61.5154 7.50376L61.0203 7.00846ZM60.649 8.1724C60.5748 8.1724 60.5005 8.09811 60.5005 8.02382C60.5005 7.94952 60.5748 7.87523 60.649 7.87523H61.3422C61.4164 7.87523 61.4907 7.94952 61.4907 8.02382C61.4907 8.09811 61.4164 8.1724 61.3422 8.1724H60.649ZM61.2184 9.23729C61.1689 9.28682 61.0699 9.28682 60.9956 9.23729C60.9461 9.18776 60.9461 9.0887 60.9956 9.01441L61.4907 8.51911C61.5402 8.46958 61.6392 8.46958 61.7135 8.51911C61.763 8.56864 61.763 8.6677 61.7135 8.74199L61.2184 9.23729ZM62.3819 9.58399C62.3819 9.65829 62.3076 9.73258 62.2333 9.73258C62.1591 9.73258 62.0848 9.65829 62.0848 9.58399V8.89058C62.0848 8.81629 62.1591 8.74199 62.2333 8.74199C62.3076 8.74199 62.3819 8.81629 62.3819 8.89058V9.58399ZM63.4463 9.01441C63.4958 9.06394 63.4958 9.16299 63.4463 9.23729C63.3968 9.28682 63.2978 9.28682 63.2235 9.23729L62.7284 8.74199C62.6789 8.69246 62.6789 8.59341 62.7284 8.51911C62.7779 8.46958 62.877 8.46958 62.9512 8.51911L63.4463 9.01441ZM63.8177 7.85046C63.8919 7.85046 63.9662 7.92476 63.9662 7.99905C63.9662 8.07334 63.8919 8.14764 63.8177 8.14764H63.1245C63.0503 8.14764 62.976 8.07334 62.976 7.99905C62.976 7.92476 63.0503 7.85046 63.1245 7.85046H63.8177ZM63.2483 6.78558C63.2978 6.73605 63.3968 6.73605 63.4711 6.78558C63.5206 6.83511 63.5206 6.93417 63.4711 7.00846L62.976 7.50376C62.9265 7.55329 62.8275 7.55329 62.7532 7.50376C62.7037 7.45423 62.7037 7.35517 62.7532 7.28087L63.2483 6.78558Z" fill="#7C6CAE"/>
<path fill-rule="evenodd" clip-rule="evenodd" d="M122.438 2.57558C122.289 2.57558 122.19 2.40223 122.19 2.20411C122.19 2.00599 122.314 1.83264 122.438 1.83264H134.592C134.741 1.83264 134.84 2.00599 134.84 2.20411C134.84 2.40223 134.716 2.57558 134.592 2.57558H122.438ZM120.779 1.83264C120.928 1.83264 121.027 2.00599 121.027 2.20411C121.027 2.40223 120.903 2.57558 120.779 2.57558H119.764C119.616 2.57558 119.517 2.40223 119.517 2.20411C119.517 2.00599 119.64 1.83264 119.764 1.83264H120.779Z" fill="#7C6CAE"/>
<path fill-rule="evenodd" clip-rule="evenodd" d="M21.4376 58.5191H22.5764C22.7744 58.5191 22.9477 58.6925 22.9477 58.8906V60.0298C22.9477 60.2279 22.7744 60.4012 22.5764 60.4012H21.4376C21.2396 60.4012 21.0663 60.2279 21.0663 60.0298V58.8906C21.0416 58.6925 21.2149 58.5191 21.4376 58.5191Z" fill="#DAD5EB"/>
<path fill-rule="evenodd" clip-rule="evenodd" d="M25.2995 58.5191H26.4383C26.6363 58.5191 26.8096 58.6925 26.8096 58.8906V60.0298C26.8096 60.2279 26.6363 60.4012 26.4383 60.4012H25.2995C25.1015 60.4012 24.9282 60.2279 24.9282 60.0298V58.8906C24.9282 58.6925 25.1015 58.5191 25.2995 58.5191Z" fill="#DAD5EB"/>
<path fill-rule="evenodd" clip-rule="evenodd" d="M29.1858 58.5191H30.3245C30.5225 58.5191 30.6958 58.6925 30.6958 58.8906V60.0298C30.6958 60.2279 30.5225 60.4012 30.3245 60.4012H29.1858C28.9877 60.4012 28.8145 60.2279 28.8145 60.0298V58.8906C28.8145 58.6925 28.9877 58.5191 29.1858 58.5191Z" fill="#DAD5EB"/>
<path fill-rule="evenodd" clip-rule="evenodd" d="M33.0724 58.5191H34.2111C34.4092 58.5191 34.5824 58.6925 34.5824 58.8906V60.0298C34.5824 60.2279 34.4092 60.4012 34.2111 60.4012H33.0724C32.8744 60.4012 32.7011 60.2279 32.7011 60.0298V58.8906C32.6763 58.6925 32.8496 58.5191 33.0724 58.5191Z" fill="#DAD5EB"/>
<path fill-rule="evenodd" clip-rule="evenodd" d="M5.66869 42.422H6.80741C7.00545 42.422 7.17873 42.5954 7.17873 42.7935V43.9326C7.17873 44.1308 7.00545 44.3041 6.80741 44.3041H5.66869C5.47065 44.3041 5.29736 44.1308 5.29736 43.9326V42.7935C5.29736 42.5954 5.47065 42.422 5.66869 42.422Z" fill="#95E6F1"/>
<path fill-rule="evenodd" clip-rule="evenodd" d="M9.55492 42.422H10.6936C10.8917 42.422 11.065 42.5954 11.065 42.7935V43.9326C11.065 44.1308 10.8917 44.3041 10.6936 44.3041H9.55492C9.35688 44.3041 9.18359 44.1308 9.18359 43.9326V42.7935C9.18359 42.5954 9.35688 42.422 9.55492 42.422Z" fill="#95E6F1"/>
<path fill-rule="evenodd" clip-rule="evenodd" d="M13.4416 42.422H14.5803C14.7783 42.422 14.9516 42.5954 14.9516 42.7935V43.9326C14.9516 44.1308 14.7783 44.3041 14.5803 44.3041H13.4416C13.2435 44.3041 13.0702 44.1308 13.0702 43.9326V42.7935C13.0455 42.5954 13.2188 42.422 13.4416 42.422Z" fill="#95E6F1"/>
<path fill-rule="evenodd" clip-rule="evenodd" d="M17.3035 42.422H18.4422C18.6402 42.422 18.8135 42.5954 18.8135 42.7935V43.9326C18.8135 44.1308 18.6402 44.3041 18.4422 44.3041H17.3035C17.1054 44.3041 16.9321 44.1308 16.9321 43.9326V42.7935C16.9321 42.5954 17.1054 42.422 17.3035 42.422Z" fill="#95E6F1"/>
<path fill-rule="evenodd" clip-rule="evenodd" d="M99.5146 46.7063C99.5146 46.632 99.5889 46.5577 99.6632 46.5577C99.7374 46.5577 99.8117 46.632 99.8117 46.7063V47.3997C99.8117 47.474 99.7374 47.5483 99.6632 47.5483C99.5889 47.5483 99.5146 47.474 99.5146 47.3997V46.7063ZM98.4502 47.3007C98.4007 47.2512 98.4007 47.1521 98.4502 47.0778C98.4997 47.0283 98.5987 47.0283 98.673 47.0778L99.1681 47.5731C99.2176 47.6226 99.2176 47.7217 99.1681 47.796C99.1186 47.8455 99.0195 47.8455 98.9453 47.796L98.4502 47.3007ZM98.1036 48.4399C98.0293 48.4399 97.9551 48.3656 97.9551 48.2913C97.9551 48.217 98.0293 48.1427 98.1036 48.1427H98.7967C98.871 48.1427 98.9453 48.217 98.9453 48.2913C98.9453 48.3656 98.871 48.4399 98.7967 48.4399H98.1036ZM98.673 49.5295C98.6235 49.579 98.5244 49.579 98.4502 49.5295C98.4007 49.48 98.4007 49.3809 98.4502 49.3066L98.9453 48.8113C98.9948 48.7618 99.0938 48.7618 99.1681 48.8113C99.2176 48.8609 99.2176 48.9599 99.1681 49.0342L98.673 49.5295ZM99.8364 49.8762C99.8364 49.9505 99.7622 50.0248 99.6879 50.0248C99.6136 50.0248 99.5394 49.9505 99.5394 49.8762V49.1828C99.5394 49.1085 99.6136 49.0342 99.6879 49.0342C99.7622 49.0342 99.8364 49.1085 99.8364 49.1828V49.8762ZM100.901 49.3066C100.95 49.3562 100.95 49.4552 100.901 49.5295C100.851 49.579 100.752 49.579 100.678 49.5295L100.183 49.0342C100.133 48.9847 100.133 48.8856 100.183 48.8113C100.233 48.7618 100.332 48.7618 100.406 48.8113L100.901 49.3066ZM101.247 48.1427C101.322 48.1427 101.396 48.217 101.396 48.2913C101.396 48.3656 101.322 48.4399 101.247 48.4399H100.554C100.48 48.4399 100.406 48.3656 100.406 48.2913C100.406 48.217 100.48 48.1427 100.554 48.1427H101.247ZM100.678 47.0778C100.728 47.0283 100.827 47.0283 100.901 47.0778C100.95 47.1273 100.95 47.2264 100.901 47.3007L100.406 47.796C100.356 47.8455 100.257 47.8455 100.183 47.796C100.133 47.7464 100.133 47.6474 100.183 47.5731L100.678 47.0778Z" fill="#7C6CAE"/>
<path fill-rule="evenodd" clip-rule="evenodd" d="M11.3872 83.4077C11.3872 83.3334 11.4615 83.2591 11.5357 83.2591C11.61 83.2591 11.6843 83.3334 11.6843 83.4077V84.1011C11.6843 84.1754 11.61 84.2497 11.5357 84.2497C11.4615 84.2497 11.3872 84.1754 11.3872 84.1011V83.4077ZM10.3227 84.002C10.2732 83.9525 10.2732 83.8534 10.3227 83.7791C10.3722 83.7296 10.4713 83.7296 10.5455 83.7791L11.0406 84.2744C11.0901 84.324 11.0901 84.423 11.0406 84.4973C10.9911 84.5469 10.8921 84.5469 10.8178 84.4973L10.3227 84.002ZM9.97617 85.1412C9.9019 85.1412 9.82764 85.0669 9.82764 84.9926C9.82764 84.9183 9.9019 84.844 9.97617 84.844H10.6693C10.7436 84.844 10.8178 84.9183 10.8178 84.9926C10.8178 85.0669 10.7436 85.1412 10.6693 85.1412H9.97617ZM10.5455 86.2309C10.496 86.2804 10.397 86.2804 10.3227 86.2309C10.2732 86.1813 10.2732 86.0823 10.3227 86.008L10.8178 85.5127C10.8673 85.4632 10.9664 85.4632 11.0406 85.5127C11.0901 85.5622 11.0901 85.6613 11.0406 85.7356L10.5455 86.2309ZM11.709 86.5776C11.709 86.6519 11.6347 86.7262 11.5605 86.7262C11.4862 86.7262 11.4119 86.6519 11.4119 86.5776V85.8842C11.4119 85.8099 11.4862 85.7356 11.5605 85.7356C11.6347 85.7356 11.709 85.8099 11.709 85.8842V86.5776ZM12.7735 86.008C12.823 86.0575 12.823 86.1566 12.7735 86.2309C12.724 86.2804 12.6249 86.2804 12.5507 86.2309L12.0556 85.7356C12.0061 85.686 12.0061 85.587 12.0556 85.5127C12.1051 85.4632 12.2041 85.4632 12.2784 85.5127L12.7735 86.008ZM13.12 84.844C13.1943 84.844 13.2686 84.9183 13.2686 84.9926C13.2686 85.0669 13.1943 85.1412 13.12 85.1412H12.4269C12.3526 85.1412 12.2784 85.0669 12.2784 84.9926C12.2784 84.9183 12.3526 84.844 12.4269 84.844H13.12ZM12.5507 83.7791C12.6002 83.7296 12.6992 83.7296 12.7735 83.7791C12.823 83.8287 12.823 83.9277 12.7735 84.002L12.2784 84.4973C12.2289 84.5469 12.1298 84.5469 12.0556 84.4973C12.0061 84.4478 12.0061 84.3487 12.0556 84.2744L12.5507 83.7791Z" fill="#7C6CAE"/>
<path fill-rule="evenodd" clip-rule="evenodd" d="M20.9676 49.6286C21.1161 49.6286 21.2152 49.4553 21.2152 49.2572C21.2152 49.059 21.0914 48.8857 20.9676 48.8857H8.81298C8.66445 48.8857 8.56543 49.059 8.56543 49.2572C8.56543 49.4553 8.6892 49.6286 8.81298 49.6286H20.9676ZM22.6014 48.8857C22.4529 48.8857 22.3539 49.059 22.3539 49.2572C22.3539 49.4553 22.4777 49.6286 22.6014 49.6286H23.6164C23.7649 49.6286 23.8639 49.4553 23.8639 49.2572C23.8639 49.059 23.7402 48.8857 23.6164 48.8857H22.6014Z" fill="#7C6CAE"/>
<path fill-rule="evenodd" clip-rule="evenodd" d="M86.6421 41.58C85.7509 41.3076 82.1367 40.0446 82.4833 41.9762C83.6715 43.0411 84.0676 44.1308 85.0578 45.1956C85.4539 45.6414 86.4193 45.9634 86.8649 46.4834L88.5977 49.0837C89.6127 48.6875 90.6276 48.2665 91.6426 47.8702C91.6426 47.6969 91.6178 47.4988 91.6178 47.3254C91.3208 45.0966 90.999 42.8678 90.7019 40.6637C89.3156 40.9361 87.9789 41.258 86.6421 41.58Z" fill="#EA7585"/>
<path fill-rule="evenodd" clip-rule="evenodd" d="M67.1105 48.1674C67.1105 48.1674 47.4057 44.0812 43.8162 41.8028C40.2267 39.5245 37.7513 35.6364 30.1268 24.6161C30.1268 24.6161 29.8297 24.0961 28.9633 24.3932C28.0969 24.7152 25.8689 26.2754 25.6461 26.7954C25.4233 27.3155 25.3491 27.786 25.6461 28.3308C25.9184 28.8757 36.2165 46.4586 38.4196 48.9103C40.6228 51.362 57.877 59.8811 61.2684 61.8623C64.635 63.8435 67.1105 48.1674 67.1105 48.1674Z" fill="#4AA1EC"/>
<path fill-rule="evenodd" clip-rule="evenodd" d="M27.9978 24.9134C27.0076 25.5078 25.7947 26.4488 25.6461 26.8203C25.4233 27.3404 25.3491 27.8109 25.6461 28.3557C25.9184 28.9005 36.2165 46.4835 38.4196 48.9352C40.301 51.0402 53.3468 57.6276 59.1147 60.6985C59.2632 57.7762 59.2137 55.4483 58.7929 55.1759C57.5056 54.4082 41.4645 49.1829 40.2515 48.118C39.0633 47.0531 30.3248 33.1601 28.4434 29.8416C26.5373 26.4736 27.9978 24.9134 27.9978 24.9134Z" fill="#1D8CEC"/>
<path fill-rule="evenodd" clip-rule="evenodd" d="M87.4341 68.4745L90.4047 67.8058C90.4047 67.8058 97.8806 75.0124 98.6233 75.6315C99.3659 76.2754 102.237 74.418 102.237 74.418L98.351 66.0228L91.2463 53.0213L88.1272 58.7172L87.4341 68.4745Z" fill="#1D8CEC"/>
<path fill-rule="evenodd" clip-rule="evenodd" d="M62.828 27.4641C64.1152 23.9475 67.9027 14.7846 73.5221 10.1536C73.5221 10.1536 74.8341 9.0144 76.8392 10.3269C78.8443 11.6395 81.3446 13.0263 83.2012 14.2893C85.0578 15.5523 85.0083 17.2858 85.1816 19.1927C85.3549 21.0996 85.5282 24.4428 85.6272 26.845C85.7262 29.2472 85.3054 29.5691 84.4885 30.0397C83.6963 30.5102 72.2348 33.8782 63.8429 30.1882C62.2091 29.5196 62.4319 28.5538 62.828 27.4641Z" fill="#28256C"/>
<path fill-rule="evenodd" clip-rule="evenodd" d="M82.4585 13.8435C82.706 14.0169 82.9536 14.1655 83.2011 14.3388C85.0577 15.6018 85.0082 17.3354 85.1815 19.2422C85.3053 20.7034 85.4538 23.0313 85.5528 25.1363C83.8447 25.161 80.8246 25.0867 79.9335 24.5171C78.8442 23.8237 75.4033 20.6043 75.4033 20.6043C75.4033 20.6043 81.9881 18.425 82.3842 15.899C82.4585 15.1561 82.4832 14.4627 82.4585 13.8435Z" fill="#221758"/>
<path fill-rule="evenodd" clip-rule="evenodd" d="M65.4517 21.3224C66.3676 19.4403 67.5063 17.4096 68.7936 15.5275C72.482 16.419 79.9828 18.6479 84.1663 22.7093C89.86 28.207 71.2195 24.418 70.2789 23.7246C69.6847 23.2789 67.036 22.313 65.4517 21.3224Z" fill="#F9B532"/>
<path fill-rule="evenodd" clip-rule="evenodd" d="M78.8689 19.0937C80.8492 20.0843 82.7059 21.273 84.1912 22.6846C85.4537 23.898 85.5279 24.6658 84.8595 25.1115C83.1267 25.1115 80.7255 24.9877 79.9086 24.4924C78.8193 23.799 75.3784 20.5796 75.3784 20.5796C75.3784 20.5796 77.1113 19.9852 78.8689 19.0937Z" fill="#F0843E"/>
<path fill-rule="evenodd" clip-rule="evenodd" d="M72.829 35.2155C63.026 32.3923 55.5748 26.424 56.1689 21.8425C56.7631 17.2858 65.2045 15.8742 75.0074 18.6974C84.8103 21.5206 92.2615 27.4889 91.6674 32.0704C91.0733 36.6271 82.6566 38.0387 72.829 35.2155Z" fill="#28256C"/>
<path fill-rule="evenodd" clip-rule="evenodd" d="M72.829 35.2155C67.0859 33.5562 62.1349 30.8074 59.1396 27.9099C58.7683 26.5231 58.7435 24.7152 60.2288 23.155C63.1746 20.0595 77.1364 20.629 83.8697 25.6068C90.5783 30.5597 87.1621 36.0575 87.1373 36.107C83.6469 37.0481 78.4731 36.8252 72.829 35.2155Z" fill="#211655"/>
<path fill-rule="evenodd" clip-rule="evenodd" d="M56.1933 23.0065C56.1438 22.6102 56.1191 22.2388 56.1686 21.8425C56.7627 17.2858 65.2041 15.8742 75.007 18.6974C84.81 21.5206 92.2612 27.4889 91.6671 32.0704C91.5928 32.5657 91.4443 33.0362 91.1967 33.4572C92.4097 30.5845 89.2163 26.9936 85.0328 24.1704C80.8492 21.3472 71.6899 17.9297 63.9169 18.5983C56.3419 19.2422 56.1933 22.8331 56.1933 23.0065Z" fill="#4A4193"/>
<path fill-rule="evenodd" clip-rule="evenodd" d="M75.3787 52.4518L74.537 52.5756H74.0172H73.4973L72.6557 52.4518L67.6304 47.697L56.7383 53.0214L57.877 72.3626C58.2731 78.4052 56.8868 91.7039 57.5552 94.2794C57.6047 94.5271 57.8275 94.8738 58.075 95.2205H89.9841C90.2316 94.8738 90.4544 94.5271 90.5039 94.2794C91.1723 91.7039 89.786 78.4052 90.1821 72.3626L91.3208 53.0214L80.4287 47.697L75.3787 52.4518Z" fill="#4AA1EC"/>
<path fill-rule="evenodd" clip-rule="evenodd" d="M56.7876 54.3586L57.8521 72.3626C57.8768 72.8579 57.9016 73.4275 57.9263 74.0218C57.9263 74.0218 60.08 55.9436 58.7927 55.1759C58.5452 55.0273 57.8025 54.7301 56.7876 54.3586ZM81.0474 95.2205H89.9344C90.1819 94.8737 90.4047 94.527 90.4542 94.2794C91.1226 91.7039 89.7363 78.4052 90.1324 72.3626L91.2711 53.0214L81.0969 48.0436L80.8246 48.7866L81.1464 49.4552C81.1464 49.4552 81.5672 48.9599 81.8148 49.1581C82.0623 49.3562 86.7657 53.5909 86.5925 55.4731C86.4192 57.3552 85.5528 69.4404 85.3052 80.5597C85.1814 86.6766 83.003 91.8277 81.0474 95.2205Z" fill="#1D8CEC"/>
<path fill-rule="evenodd" clip-rule="evenodd" d="M79.8593 46.4835C75.8985 44.7747 72.0863 44.7747 68.1255 46.4835L68.8186 48.3161H79.1662L79.8593 46.4835Z" fill="#F2BBC9"/>
<path fill-rule="evenodd" clip-rule="evenodd" d="M75.3784 52.4517L74.5368 52.5756H73.4723L72.6307 52.4517L69.264 49.2571L68.7689 49.4057L67.6797 50.8173C67.6797 50.8173 70.1304 56.5132 70.2789 56.7113C70.4275 56.9094 70.675 57.0085 71.0463 56.5627C71.4177 56.1169 72.5811 54.6558 72.5811 54.6558C72.5811 54.6558 72.9277 54.3091 73.0762 54.7053C73.2248 55.1016 74.9824 54.0119 74.9824 54.0119L75.1061 54.4082C75.1061 54.4082 75.3784 54.0862 75.626 54.5072C75.8983 54.9282 77.1608 56.7113 77.2598 56.7856C77.3588 56.8599 77.7302 57.1323 78.0025 56.5627C78.25 56.0426 81.1711 49.48 81.6909 48.3408L80.4037 47.7217L75.3784 52.4517Z" fill="#1D8CEC"/>
<path fill-rule="evenodd" clip-rule="evenodd" d="M75.3787 52.4518L74.537 52.5756H73.4725L72.6309 52.4518L72.2843 52.1298L71.5664 53.3433C71.5664 53.3433 73.1507 53.8634 73.1507 55.2502C73.1507 60.2774 73.1507 60.9708 73.1507 65.9981C73.1507 66.4686 73.522 66.8401 73.9924 66.8401C74.4627 66.8401 74.834 66.4686 74.834 65.9981C74.834 60.9708 74.834 60.2774 74.834 55.2502C74.834 53.8634 76.4184 53.3433 76.4184 53.3433L75.7005 52.1298L75.3787 52.4518Z" fill="#1D8CEC"/>
<path fill-rule="evenodd" clip-rule="evenodd" d="M73.992 38.1625C76.4428 38.1625 78.4479 40.1684 78.4479 42.6201V48.5141C78.4479 50.9658 76.4428 52.9718 73.992 52.9718C71.5413 52.9718 69.5361 50.9658 69.5361 48.5141V42.6201C69.5361 40.1684 71.5413 38.1625 73.992 38.1625Z" fill="#EA7585"/>
<path fill-rule="evenodd" clip-rule="evenodd" d="M72.9526 52.0556L73.4724 51.9813C73.4724 51.9813 73.5715 52.0803 73.5962 52.2784C73.621 52.4518 73.621 52.9966 73.621 52.9966C73.4229 53.0709 72.4327 53.269 72.4575 53.1204C72.4575 53.0709 72.9526 52.0556 72.9526 52.0556Z" fill="#D8364B"/>
<path fill-rule="evenodd" clip-rule="evenodd" d="M75.0317 52.0556L74.5118 51.9813C74.5118 51.9813 74.4128 52.0803 74.388 52.2784C74.3633 52.4518 74.3633 52.9966 74.3633 52.9966C74.5613 53.1452 75.5515 53.269 75.5268 53.1204C75.5268 53.0709 75.0317 52.0556 75.0317 52.0556Z" fill="#D8364B"/>
<path fill-rule="evenodd" clip-rule="evenodd" d="M79.8594 46.4834C79.9089 46.5329 80.5525 47.6474 80.8743 48.1674C80.8743 48.1674 81.1714 48.6132 80.9486 49.3314C80.7258 50.0743 77.879 56.0921 77.879 56.0921C77.879 56.0921 77.681 56.4141 77.3592 56.0921C77.0373 55.7702 74.5371 51.9317 74.5371 51.9317L79.2653 46.9539C79.4633 46.6815 79.7851 46.4339 79.8594 46.4834Z" fill="white"/>
<path fill-rule="evenodd" clip-rule="evenodd" d="M68.1257 46.4835C68.0762 46.5082 67.4326 47.6474 67.1107 48.1675C67.1107 48.1675 66.8137 48.6132 67.0365 49.3314C67.2593 50.0744 70.1061 56.0922 70.1061 56.0922C70.1061 56.0922 70.3041 56.4141 70.6259 56.0922C70.9477 55.7703 73.448 51.9317 73.448 51.9317L68.7198 46.954C68.4227 46.6073 68.1752 46.4587 68.1257 46.4835Z" fill="white"/>
<path fill-rule="evenodd" clip-rule="evenodd" d="M64.3378 33.1105C64.2635 33.1105 64.214 33.1352 64.1397 33.1352C62.9268 33.3829 61.9861 34.4725 61.9613 35.7603C61.9366 37.2709 63.1248 38.5339 64.6596 38.5587C66.1696 38.5835 67.4321 37.3948 67.4569 35.8594C67.4817 34.9678 67.0856 34.1754 66.4419 33.6801C66.5162 34.4973 66.3924 35.4879 65.3527 35.5869L65.3775 34.002C65.3527 33.4077 64.7586 33.1105 64.3378 33.1105Z" fill="#EA7585"/>
<path fill-rule="evenodd" clip-rule="evenodd" d="M84.1168 33.1105C84.191 33.1105 84.2406 33.1352 84.3148 33.1352C85.5278 33.3829 86.4685 34.4725 86.4932 35.7603C86.518 37.2709 85.305 38.5339 83.795 38.5587C82.2849 38.5835 81.0224 37.3948 80.9977 35.8594C80.9729 34.9678 81.369 34.1754 82.0126 33.6801C81.9384 34.4973 82.0621 35.4879 83.1018 35.5869L83.0771 34.002C83.0771 33.4077 83.6712 33.1105 84.1168 33.1105Z" fill="#EA7585"/>
<path fill-rule="evenodd" clip-rule="evenodd" d="M65.5261 25.9535C65.1548 26.9688 64.833 27.6623 64.833 28.8014V37.3453C64.833 42.5211 69.0661 46.7311 74.2151 46.7311C79.3889 46.7311 83.5972 42.4963 83.5972 37.3453V28.8014C83.5972 27.6623 83.4982 26.9688 83.1269 25.9535C81.5673 25.5077 78.2006 25.2105 74.3141 25.2105C70.4524 25.2105 67.0857 25.5325 65.5261 25.9535Z" fill="#F3C6D4"/>
<path fill-rule="evenodd" clip-rule="evenodd" d="M71.1703 46.2358C72.1358 46.5578 73.1507 46.7559 74.2399 46.7559C79.4137 46.7559 83.622 42.5211 83.622 37.37V28.8262C83.622 27.687 83.523 26.9936 83.1517 25.9783C81.5921 25.5325 78.2255 25.2353 74.3389 25.2353C71.1208 25.2353 68.274 25.4334 66.4917 25.7554H66.4669H66.4421L65.5015 27.6375L66.4917 29.1729C66.4917 29.1729 67.3828 27.6375 69.9573 27.6375C72.5566 27.6375 76.047 27.6375 77.5818 27.6375C79.0919 27.6375 80.2306 28.3061 80.2306 31.2284C80.2306 34.1506 80.2306 37.2462 80.2306 39.5246C80.2554 41.7782 78.7948 47.5979 71.1703 46.2358Z" fill="#F2ADBB"/>
<path fill-rule="evenodd" clip-rule="evenodd" d="M75.3783 37.8406C75.4278 39.1779 74.3881 40.3171 73.0514 40.3666C71.7146 40.4161 70.5759 39.376 70.5264 38.0387C70.5264 37.8158 70.6997 37.6177 70.9224 37.593L74.9327 37.4444C75.1555 37.4196 75.3536 37.593 75.3783 37.8406Z" fill="#170839"/>
<path fill-rule="evenodd" clip-rule="evenodd" d="M74.5366 39.7475C74.1405 40.0942 73.6206 40.3171 73.0265 40.3419C72.5562 40.3666 72.1106 40.2428 71.7393 40.0199C71.9125 39.5246 72.4324 39.1284 73.1008 39.0789C73.7197 39.0293 74.2643 39.3265 74.5366 39.7475Z" fill="#E84A5B"/>
<path fill-rule="evenodd" clip-rule="evenodd" d="M70.8726 37.593L74.6353 37.4444C74.7096 37.8654 74.5363 38.2864 74.264 38.3855C73.9174 38.5093 71.1944 38.5588 70.9963 38.3359C70.8973 38.2369 70.8726 37.9149 70.8726 37.593Z" fill="white"/>
<path fill-rule="evenodd" clip-rule="evenodd" d="M78.1764 35.7356C77.4833 35.7108 76.9387 36.2556 76.9139 36.949C76.8891 37.6424 77.4337 38.1873 78.1269 38.212C78.82 38.2368 79.3646 37.692 79.3894 36.9985C79.3894 36.3299 78.8448 35.7603 78.1764 35.7356Z" fill="#EA7585"/>
<path fill-rule="evenodd" clip-rule="evenodd" d="M67.9029 35.5374C67.2098 35.5127 66.6652 36.0575 66.6405 36.7509C66.6157 37.4443 67.1603 37.9891 67.8534 38.0139C68.5466 38.0387 69.0912 37.4938 69.1159 36.8004C69.1407 36.107 68.5961 35.5622 67.9029 35.5374Z" fill="#EA7585"/>
<path fill-rule="evenodd" clip-rule="evenodd" d="M67.3828 31.9961C67.2095 32.0704 67.0115 32.0208 66.9372 31.8475C66.863 31.6741 66.9125 31.476 67.0858 31.4017C67.9769 30.956 69.1404 30.8817 70.0068 31.4017C70.1554 31.5008 70.2049 31.6989 70.1306 31.8475C70.0316 31.9961 69.8336 32.0456 69.685 31.9713C68.9919 31.5503 68.1007 31.6494 67.3828 31.9961Z" fill="#170839"/>
<path fill-rule="evenodd" clip-rule="evenodd" d="M78.4481 28.7766C77.7303 28.4299 76.8638 28.3309 76.146 28.7519C75.9974 28.8509 75.7746 28.8014 75.7004 28.628C75.6014 28.4795 75.6509 28.2566 75.8241 28.1823C76.6906 27.6622 77.8788 27.7118 78.7452 28.1823C78.9185 28.2566 78.968 28.4547 78.8937 28.628C78.8195 28.8014 78.6214 28.8509 78.4481 28.7766Z" fill="#170839"/>
<path fill-rule="evenodd" clip-rule="evenodd" d="M69.4124 34.2248C69.4124 34.002 69.3134 33.7791 69.1649 33.6057C68.9916 33.4324 68.7936 33.3581 68.546 33.3581C68.3232 33.3581 68.1004 33.4571 67.9272 33.6057C67.7539 33.7791 67.6796 33.9772 67.6796 34.2248C67.6796 34.3982 67.5311 34.5715 67.3578 34.5715C67.1845 34.5715 67.0112 34.423 67.0112 34.2248C67.0112 33.8038 67.1845 33.4324 67.4568 33.1352C67.7539 32.838 68.1252 32.6894 68.546 32.6894C68.9669 32.6894 69.3382 32.8628 69.6352 33.1352C69.9323 33.4324 70.0808 33.8038 70.0808 34.2248C70.0808 34.3982 69.9323 34.5715 69.759 34.5715C69.561 34.5715 69.4124 34.423 69.4124 34.2248Z" fill="#170839"/>
<path fill-rule="evenodd" clip-rule="evenodd" d="M64.833 35.7851C64.833 35.7851 66.2441 35.2155 66.2441 32.8133C66.2441 30.4112 66.2441 31.7732 66.2441 30.535C66.2441 29.272 67.1105 27.0927 69.6602 27.0927C72.7051 27.0927 75.7499 27.0927 78.8195 27.0927C81.3693 27.0927 82.2357 29.2967 82.2357 30.535C82.2357 31.798 82.2357 29.1729 82.2357 31.5751C82.2357 33.9773 83.6467 34.3983 83.6467 34.3983C83.6467 33.1105 84.2161 33.16 84.2161 33.16C84.2161 33.16 84.2161 30.6093 84.2161 28.3805C84.2161 27.6623 84.1418 26.8946 83.9686 26.0773C83.6715 25.3839 79.4384 24.8639 74.2399 24.8639C69.0414 24.8639 64.8083 25.4087 64.5112 26.0773C64.3379 26.8946 64.2637 27.6623 64.2637 28.3805C64.2637 30.6093 64.2637 33.16 64.2637 33.16C64.2637 33.16 64.833 33.8782 64.833 35.7851Z" fill="#170839"/>
<path fill-rule="evenodd" clip-rule="evenodd" d="M77.1859 31.9713C77.681 31.9713 78.1019 32.3923 78.1019 32.8876V33.7791C78.1019 34.2744 77.681 34.6954 77.1859 34.6954C76.6908 34.6954 76.27 34.2744 76.27 33.7791V32.8876C76.2948 32.3923 76.6908 31.9713 77.1859 31.9713Z" fill="#170839"/>
<path fill-rule="evenodd" clip-rule="evenodd" d="M74.512 30.5103C75.5022 29.5197 76.839 28.9996 78.151 28.9996C79.463 28.9996 80.775 29.4949 81.7899 30.5103C82.7801 31.5008 83.3 32.8381 83.3 34.1507C83.3 35.4632 82.8049 36.7757 81.7899 37.7911C80.7997 38.7817 79.463 39.3017 78.151 39.3017C76.839 39.3017 75.527 38.8065 74.512 37.7911C73.5218 36.8005 73.002 35.4632 73.002 34.1507C73.0267 32.8134 73.5218 31.5008 74.512 30.5103ZM78.151 29.7425C77.037 29.7425 75.8983 30.1635 75.0319 31.0303C74.1654 31.8971 73.7446 33.0115 73.7446 34.1507C73.7446 35.2651 74.1654 36.4043 75.0319 37.271C75.8983 38.1378 77.0122 38.5588 78.151 38.5588C79.2649 38.5588 80.4037 38.1378 81.2701 37.271C82.1365 36.4043 82.5573 35.2899 82.5573 34.1507C82.5573 33.0363 82.1365 31.8971 81.2701 31.0303C80.4037 30.1635 79.2649 29.7425 78.151 29.7425Z" fill="#170839"/>
<path fill-rule="evenodd" clip-rule="evenodd" d="M81.2701 37.7663C81.1216 37.6177 81.1216 37.3949 81.2701 37.2463C81.4186 37.0977 81.6414 37.0977 81.7899 37.2463L83.0029 38.4597C83.1514 38.6083 83.1514 38.8312 83.0029 38.9798C82.8544 39.1284 82.6316 39.1284 82.4831 38.9798L81.2701 37.7663Z" fill="#170839"/>
<path fill-rule="evenodd" clip-rule="evenodd" d="M82.5329 39.5494C82.2358 39.2522 82.2358 38.8064 82.5329 38.5093C82.8299 38.2121 83.2755 38.2121 83.5726 38.5093L89.1672 44.1061C89.4642 44.4033 89.4642 44.849 89.1672 45.1462C88.8701 45.4434 88.4245 45.4434 88.1275 45.1462L82.5329 39.5494Z" fill="#170839"/>
<path fill-rule="evenodd" clip-rule="evenodd" d="M91.5679 47.3007C91.0976 47.3998 88.0775 48.8609 88.0775 48.8609C88.0775 48.8609 87.9042 48.96 88.0032 49.3067C88.1022 49.6286 96.0486 70.7034 97.5834 74.1952C99.7618 79.1729 106.965 75.5078 104.762 68.747C103.648 65.3294 92.4343 47.8703 92.2611 47.6227C92.1373 47.3502 91.8897 47.1769 91.5679 47.3007Z" fill="#4AA1EC"/>
<path fill-rule="evenodd" clip-rule="evenodd" d="M71.69 34.9926C71.4672 35.3146 71.0464 35.8842 71.0216 36.107C70.9721 36.4042 71.6405 36.5776 72.1109 36.4537C72.4327 36.3547 72.3832 35.6365 72.2841 35.166C72.1851 34.6459 72.0366 34.4726 71.69 34.9926Z" fill="#F8DDE4"/>
<path fill-rule="evenodd" clip-rule="evenodd" d="M49.1384 1.83264H1.95563C0.891175 1.83264 0 2.72417 0 3.81382V33.9277C0 35.0174 0.891175 35.8842 1.95563 35.8842H49.1384C50.2276 35.8842 51.094 34.9926 51.094 33.9277V3.81382C51.094 2.72417 50.2029 1.83264 49.1384 1.83264Z" fill="#DFFAFE"/>
<path fill-rule="evenodd" clip-rule="evenodd" d="M41.7861 35.8594H49.1383C50.2275 35.8594 51.094 34.9679 51.094 33.903V4.60632H41.7861V35.8594Z" fill="#82D0DB"/>
<path fill-rule="evenodd" clip-rule="evenodd" d="M29.6813 11.5652H38.3207C38.7168 11.5652 39.0386 11.8872 39.0386 12.2834V15.9733C39.0386 16.3696 38.7168 16.6915 38.3207 16.6915H29.6813C29.2852 16.6915 28.9634 16.3696 28.9634 15.9733V12.2834C28.9634 11.8872 29.2852 11.5652 29.6813 11.5652Z" fill="white"/>
<path fill-rule="evenodd" clip-rule="evenodd" d="M49.1384 1.83264H1.95563C0.891175 1.83264 0 2.72417 0 3.81382V6.01788H51.094V3.81382C51.094 2.72417 50.2029 1.83264 49.1384 1.83264Z" fill="#95E6F1"/>
<path fill-rule="evenodd" clip-rule="evenodd" d="M48.8908 4.55672C49.2374 4.55672 49.5097 4.28431 49.5097 3.9376C49.5097 3.59089 49.2374 3.31848 48.8908 3.31848C48.5443 3.31848 48.272 3.59089 48.272 3.9376C48.272 4.25954 48.5443 4.55672 48.8908 4.55672Z" fill="white"/>
<path fill-rule="evenodd" clip-rule="evenodd" d="M46.6135 4.55672C46.9601 4.55672 47.2324 4.28431 47.2324 3.9376C47.2324 3.59089 46.9601 3.31848 46.6135 3.31848C46.2669 3.31848 45.9946 3.59089 45.9946 3.9376C45.9699 4.25954 46.2669 4.55672 46.6135 4.55672Z" fill="white"/>
<path fill-rule="evenodd" clip-rule="evenodd" d="M44.3113 4.55672C44.6578 4.55672 44.9301 4.28431 44.9301 3.9376C44.9301 3.59089 44.6578 3.31848 44.3113 3.31848C43.9647 3.31848 43.6924 3.59089 43.6924 3.9376C43.6924 4.25954 43.9647 4.55672 44.3113 4.55672Z" fill="white"/>
<path fill-rule="evenodd" clip-rule="evenodd" d="M49.163 14.0417H43.717C43.5437 14.0417 43.4199 14.1655 43.4199 14.3388C43.4199 14.5122 43.5437 14.636 43.717 14.636H49.163C49.3363 14.636 49.4601 14.5122 49.4601 14.3388C49.4601 14.1902 49.3116 14.0417 49.163 14.0417Z" fill="white"/>
<path fill-rule="evenodd" clip-rule="evenodd" d="M49.1629 15.3542H46.0685C45.8953 15.3542 45.7715 15.478 45.7715 15.6513C45.7715 15.8247 45.8953 15.9485 46.0685 15.9485H49.1629C49.3362 15.9485 49.46 15.8247 49.46 15.6513C49.46 15.478 49.3114 15.3542 49.1629 15.3542Z" fill="white"/>
<path fill-rule="evenodd" clip-rule="evenodd" d="M49.163 17.9545H43.717C43.5437 17.9545 43.4199 18.0783 43.4199 18.2517C43.4199 18.425 43.5437 18.5489 43.717 18.5489H49.163C49.3363 18.5489 49.4601 18.425 49.4601 18.2517C49.4601 18.0783 49.3116 17.9545 49.163 17.9545Z" fill="white"/>
<path fill-rule="evenodd" clip-rule="evenodd" d="M49.1629 19.2422H46.0685C45.8953 19.2422 45.7715 19.3661 45.7715 19.5394C45.7715 19.7128 45.8953 19.8366 46.0685 19.8366H49.1629C49.3362 19.8366 49.46 19.7128 49.46 19.5394C49.46 19.3908 49.3114 19.2422 49.1629 19.2422Z" fill="white"/>
<path fill-rule="evenodd" clip-rule="evenodd" d="M45.0288 19.2422H44.5832C44.4099 19.2422 44.2861 19.3661 44.2861 19.5394C44.2861 19.7128 44.4099 19.8366 44.5832 19.8366H45.0288C45.2021 19.8366 45.3258 19.7128 45.3258 19.5394C45.3258 19.3908 45.1773 19.2422 45.0288 19.2422Z" fill="white"/>
<path fill-rule="evenodd" clip-rule="evenodd" d="M49.1629 22.8084H46.3903C46.217 22.8084 46.0933 22.6846 46.0933 22.5112C46.0933 22.3379 46.217 22.2141 46.3903 22.2141H49.1629C49.3361 22.2141 49.4599 22.3379 49.4599 22.5112C49.4599 22.6846 49.3114 22.8084 49.1629 22.8084Z" fill="white"/>
<path fill-rule="evenodd" clip-rule="evenodd" d="M49.1629 21.5206H45.3259C45.1526 21.5206 45.0288 21.3967 45.0288 21.2234C45.0288 21.05 45.1526 20.9262 45.3259 20.9262H49.1629C49.3362 20.9262 49.4599 21.05 49.4599 21.2234C49.4599 21.3967 49.3114 21.5206 49.1629 21.5206Z" fill="white"/>
<path fill-rule="evenodd" clip-rule="evenodd" d="M44.1876 21.5206H43.5192C43.3459 21.5206 43.2222 21.3967 43.2222 21.2234C43.2222 21.05 43.3459 20.9262 43.5192 20.9262H44.1876C44.3609 20.9262 44.4846 21.05 44.4846 21.2234C44.4846 21.3967 44.3609 21.5206 44.1876 21.5206Z" fill="white"/>
<path fill-rule="evenodd" clip-rule="evenodd" d="M49.1631 24.1705H47.3312C47.158 24.1705 47.0342 24.0466 47.0342 23.8733C47.0342 23.6999 47.158 23.5761 47.3312 23.5761H49.1631C49.3364 23.5761 49.4601 23.6999 49.4601 23.8733C49.4601 24.0219 49.3116 24.1705 49.1631 24.1705Z" fill="white"/>
<path fill-rule="evenodd" clip-rule="evenodd" d="M49.163 25.4582H45.1032C44.9299 25.4582 44.8062 25.3344 44.8062 25.161C44.8062 24.9877 44.9299 24.8639 45.1032 24.8639H49.163C49.3363 24.8639 49.4601 24.9877 49.4601 25.161C49.4601 25.3344 49.3115 25.4582 49.163 25.4582Z" fill="white"/>
<path fill-rule="evenodd" clip-rule="evenodd" d="M38.4691 7.38004H14.4569C14.1351 7.38004 13.8628 7.65245 13.8628 7.97439C13.8628 8.29633 14.1351 8.56874 14.4569 8.56874H38.4691C38.7909 8.56874 39.0632 8.29633 39.0632 7.97439C39.0632 7.62768 38.7909 7.38004 38.4691 7.38004Z" fill="white"/>
<path fill-rule="evenodd" clip-rule="evenodd" d="M11.8081 7.38004H3.71326C3.39144 7.38004 3.11914 7.65245 3.11914 7.97439C3.11914 8.29633 3.39144 8.56874 3.71326 8.56874H11.8081C12.1299 8.56874 12.4022 8.29633 12.4022 7.97439C12.4022 7.62768 12.1299 7.38004 11.8081 7.38004Z" fill="white"/>
<path fill-rule="evenodd" clip-rule="evenodd" d="M49.089 12.4071H44.5588C44.3608 12.4071 44.1875 12.2338 44.1875 12.0357V8.59338C44.1875 8.39526 44.3608 8.22191 44.5588 8.22191H44.7321V8.04855C44.7321 7.99902 44.7816 7.94949 44.8311 7.94949H46.1926C46.2422 7.94949 46.2917 7.99902 46.2917 8.04855V8.22191H49.0642C49.2622 8.22191 49.4355 8.39526 49.4355 8.59338V12.0357C49.4603 12.2338 49.287 12.4071 49.089 12.4071Z" fill="#F9B532"/>
<path fill-rule="evenodd" clip-rule="evenodd" d="M45.9201 12.4072H48.7669C48.9402 12.4072 49.064 12.2587 49.064 12.1101V9.18783C49.064 9.01448 48.9154 8.89066 48.7669 8.89066H45.9201C45.7468 8.89066 45.623 9.03924 45.623 9.18783V12.1101C45.623 12.2587 45.7468 12.4072 45.9201 12.4072Z" fill="white"/>
<path fill-rule="evenodd" clip-rule="evenodd" d="M48.6186 12.4072H44.435C44.237 12.4072 43.9894 12.2338 43.8904 12.0357L42.5784 9.08871C42.4794 8.89059 42.5784 8.71724 42.7764 8.71724H42.9992L42.925 8.54388C42.9002 8.46959 42.925 8.39529 42.9992 8.39529H44.534C44.6083 8.39529 44.7073 8.44482 44.7321 8.54388L44.8063 8.71724H46.96C47.158 8.71724 47.4056 8.89059 47.5046 9.08871L48.8166 12.0357C48.9404 12.2338 48.8414 12.4072 48.6186 12.4072Z" fill="#FCC749"/>
<path fill-rule="evenodd" clip-rule="evenodd" d="M21.3884 10.8718C21.5122 10.9461 21.5369 11.0947 21.4874 11.1938C21.4379 11.2928 21.2646 11.3424 21.1656 11.2928C20.7943 11.07 20.4972 10.7728 20.2745 10.4013C20.0764 10.0546 19.9526 9.6336 19.9526 9.18784C19.9526 8.51919 20.2249 7.90007 20.6705 7.47907C21.1161 7.03331 21.7102 6.76089 22.3786 6.76089C23.047 6.76089 23.6659 7.03331 24.0867 7.47907C24.5323 7.92484 24.8046 8.51919 24.8046 9.18784C24.8046 9.31166 24.7056 9.43549 24.557 9.43549C24.4333 9.43549 24.3095 9.33643 24.3095 9.18784C24.3095 8.64301 24.0867 8.17249 23.7401 7.82578C23.3936 7.47907 22.8985 7.25619 22.3786 7.25619C21.834 7.25619 21.3637 7.47907 21.0171 7.82578C20.6705 8.17249 20.4477 8.66778 20.4477 9.18784C20.4477 9.53455 20.5468 9.88125 20.6953 10.1537C20.8438 10.4508 21.0914 10.6985 21.3884 10.8718Z" fill="#66D4E3"/>
<path fill-rule="evenodd" clip-rule="evenodd" d="M25.2003 6.56273C25.1012 6.46367 25.126 6.31508 25.225 6.21602C25.324 6.11697 25.4726 6.14173 25.5716 6.24079C25.9429 6.63703 26.2152 7.10756 26.4132 7.60285C26.6113 8.09814 26.7103 8.6182 26.7103 9.18779C26.7103 9.55926 26.6608 9.93074 26.5865 10.2527C26.4875 10.5994 26.3637 10.9461 26.1904 11.268C26.1162 11.3919 25.9677 11.4166 25.8686 11.3671C25.7449 11.2928 25.7201 11.1442 25.7696 11.0451C25.9181 10.7727 26.0419 10.4756 26.1162 10.1536C26.1904 9.85644 26.24 9.5345 26.24 9.18779C26.24 8.6925 26.1409 8.22197 25.9677 7.7762C25.7696 7.33044 25.5221 6.90944 25.2003 6.56273ZM21.388 12.9273C21.5118 12.952 21.586 13.1006 21.5613 13.2244C21.5365 13.3483 21.388 13.4226 21.2642 13.3978C20.3235 13.1502 19.4819 12.6053 18.9125 11.8376C18.3432 11.0947 17.9966 10.1784 17.9966 9.16303C17.9966 8.49438 18.1451 7.87526 18.3927 7.33044C18.665 6.76085 19.061 6.24079 19.5314 5.84455C19.6304 5.77026 19.7789 5.77026 19.878 5.86932C19.9522 5.96838 19.9522 6.11697 19.8532 6.21602C19.4324 6.5875 19.061 7.03326 18.8382 7.55332C18.6155 8.04862 18.4669 8.59344 18.4669 9.18779C18.4669 10.0793 18.764 10.8966 19.2838 11.5652C19.8037 12.2091 20.5463 12.7044 21.388 12.9273Z" fill="#66D4E3"/>
<path fill-rule="evenodd" clip-rule="evenodd" d="M3.83703 11.5652H12.4765C12.8726 11.5652 13.1944 11.8872 13.1944 12.2834V15.9733C13.1944 16.3696 12.8726 16.6915 12.4765 16.6915H3.83703C3.44095 16.6915 3.11914 16.3696 3.11914 15.9733V12.2834C3.11914 11.8872 3.44095 11.5652 3.83703 11.5652Z" fill="white"/>
<path fill-rule="evenodd" clip-rule="evenodd" d="M4.28262 18.9203H17.9968C18.6404 18.9203 19.1603 19.4404 19.1603 20.0843V25.9288C19.1603 26.5727 18.6404 27.0927 17.9968 27.0927H4.28262C3.63899 27.0927 3.11914 26.5727 3.11914 25.9288V20.0843C3.11914 19.4404 3.63899 18.9203 4.28262 18.9203Z" fill="white"/>
<path fill-rule="evenodd" clip-rule="evenodd" d="M32.6515 18.9203H38.3204C38.7164 18.9203 39.0382 19.2423 39.0382 19.6385V23.3285C39.0382 23.7247 38.7164 24.0466 38.3204 24.0466H32.6515C32.2554 24.0466 31.9336 23.7247 31.9336 23.3285V19.6633C31.9336 19.2423 32.2554 18.9203 32.6515 18.9203Z" fill="white"/>
<path fill-rule="evenodd" clip-rule="evenodd" d="M3.83703 33.9525H24.0618C24.4578 33.9525 24.7796 33.6305 24.7796 33.2343V29.5939C24.7796 29.1976 24.4578 28.8757 24.0618 28.8757H3.83703C3.44095 28.8757 3.11914 29.1976 3.11914 29.5939V33.2343C3.11914 33.6305 3.44095 33.9525 3.83703 33.9525Z" fill="white"/>
<path fill-rule="evenodd" clip-rule="evenodd" d="M35.9936 26.2011H38.5434C38.8157 26.2011 39.0385 26.424 39.0385 26.6964V30.8321C39.0385 31.1046 38.8157 31.3274 38.5434 31.3274H35.9936C35.7213 31.3274 35.4985 31.1046 35.4985 30.8321V26.6964C35.4985 26.424 35.7213 26.2011 35.9936 26.2011Z" fill="white"/>
<path fill-rule="evenodd" clip-rule="evenodd" d="M75.8243 57.6028C76.1708 57.6028 76.4679 57.3056 76.4679 56.9589C76.4679 56.6122 76.1708 56.315 75.8243 56.315C75.4777 56.315 75.1807 56.6122 75.1807 56.9589C75.1807 57.3304 75.453 57.6028 75.8243 57.6028Z" fill="white"/>
<path fill-rule="evenodd" clip-rule="evenodd" d="M75.8244 57.2561C75.9729 57.2561 76.1215 57.1323 76.1215 56.959C76.1215 56.8104 75.9977 56.6618 75.8244 56.6618C75.6759 56.6618 75.5273 56.7856 75.5273 56.959C75.5273 57.1323 75.6511 57.2561 75.8244 57.2561Z" fill="#1D8CEC"/>
<path fill-rule="evenodd" clip-rule="evenodd" d="M75.8243 61.1689C76.1708 61.1689 76.4679 60.8718 76.4679 60.525C76.4679 60.1783 76.1708 59.8812 75.8243 59.8812C75.4777 59.8812 75.1807 60.1783 75.1807 60.525C75.1807 60.8718 75.453 61.1689 75.8243 61.1689Z" fill="white"/>
<path fill-rule="evenodd" clip-rule="evenodd" d="M75.8244 60.8223C75.9729 60.8223 76.1215 60.6984 76.1215 60.5251C76.1215 60.3765 75.9977 60.2279 75.8244 60.2279C75.6759 60.2279 75.5273 60.3517 75.5273 60.5251C75.5273 60.6737 75.6511 60.8223 75.8244 60.8223Z" fill="#1D8CEC"/>
<path fill-rule="evenodd" clip-rule="evenodd" d="M75.8243 64.7104C76.1708 64.7104 76.4679 64.4132 76.4679 64.0665C76.4679 63.7198 76.1708 63.4226 75.8243 63.4226C75.4777 63.4226 75.1807 63.7198 75.1807 64.0665C75.1807 64.438 75.453 64.7104 75.8243 64.7104Z" fill="white"/>
<path fill-rule="evenodd" clip-rule="evenodd" d="M75.8244 64.3636C75.9729 64.3636 76.1215 64.2398 76.1215 64.0664C76.1215 63.9178 75.9977 63.7692 75.8244 63.7692C75.6759 63.7692 75.5273 63.8931 75.5273 64.0664C75.5273 64.2398 75.6511 64.3636 75.8244 64.3636Z" fill="#1D8CEC"/>
<path fill-rule="evenodd" clip-rule="evenodd" d="M80.676 31.5998C80.5769 31.5007 80.5769 31.3522 80.676 31.2531C80.775 31.154 80.9235 31.154 81.0225 31.2531C81.4186 31.6493 81.7157 32.0951 81.9137 32.5656C82.1117 33.0609 82.2108 33.6057 82.2108 34.1258C82.2108 34.4973 82.1612 34.8935 82.0622 35.265C82.0375 35.3888 81.8889 35.4631 81.7652 35.4383C81.6414 35.4136 81.5671 35.265 81.5919 35.1412C81.6909 34.8192 81.7404 34.4725 81.7404 34.1506C81.7404 33.68 81.6414 33.2095 81.4681 32.7637C81.2948 32.3427 81.0225 31.9465 80.676 31.5998ZM81.171 36.0822C81.2453 35.9584 81.3938 35.9336 81.5176 36.0079C81.6414 36.0822 81.6661 36.2308 81.5919 36.3546C81.5176 36.4785 81.4186 36.6023 81.3443 36.7013C81.2453 36.8252 81.1463 36.9242 81.0473 37.0233C80.9483 37.1223 80.7997 37.1223 80.7007 37.0233C80.6017 36.9242 80.6017 36.7756 80.7007 36.6766C80.7997 36.5775 80.874 36.4785 80.9483 36.3794C81.0225 36.2803 81.0968 36.1813 81.171 36.0822ZM75.626 36.6766C75.725 36.7756 75.725 36.9242 75.626 37.0233C75.5269 37.1223 75.3784 37.1223 75.2794 37.0233C74.8833 36.627 74.5863 36.1813 74.3882 35.7108C74.1902 35.2155 74.0664 34.6706 74.0664 34.1506C74.0664 33.9029 74.0912 33.6553 74.1407 33.4076C74.1902 33.16 74.2644 32.9123 74.3387 32.6895C74.3882 32.5656 74.5367 32.4913 74.6605 32.5409C74.7843 32.5904 74.8586 32.739 74.8091 32.8628C74.7348 33.0609 74.6605 33.2838 74.6358 33.5067C74.5863 33.7296 74.5863 33.9525 74.5863 34.1753C74.5863 34.6459 74.6853 35.1164 74.8586 35.5622C75.0071 35.9336 75.2794 36.3299 75.626 36.6766ZM75.2299 32.0456C75.1556 32.1446 75.0071 32.1694 74.8833 32.0951C74.7843 32.0208 74.7595 31.8722 74.8338 31.7484C74.9081 31.6493 74.9576 31.575 75.0318 31.5007V31.476C75.1061 31.4017 75.1804 31.3026 75.2546 31.2531C75.3537 31.154 75.5022 31.154 75.6012 31.2531C75.7002 31.3522 75.7002 31.5007 75.6012 31.5998C75.5269 31.6741 75.4774 31.7484 75.4032 31.7979V31.8227C75.3537 31.8722 75.3041 31.9713 75.2299 32.0456Z" fill="white"/>
<path fill-rule="evenodd" clip-rule="evenodd" d="M84.2902 37.8653C82.9782 39.1531 81.9385 39.9455 82.1861 40.9609C82.4336 41.9515 83.3991 41.5057 83.3991 41.5057C83.3991 42.1991 83.5971 42.5211 83.9684 42.5954C84.5873 42.7192 84.9091 42.2982 84.7606 42.8182C84.5625 43.4374 84.8844 43.8831 85.3299 44.0565C85.6518 44.1803 86.3449 43.5364 86.2211 43.8831C85.9983 44.5518 86.3944 45.2947 86.9885 45.2947C87.5826 45.2947 87.9787 44.9728 87.8302 44.9232C87.6817 44.8985 87.5579 44.4775 87.5579 44.4775C87.5579 44.4775 88.4491 43.5117 88.7956 43.7345C89.167 43.9574 89.2412 44.2051 89.2412 44.2051L90.1819 45.5919C91.6919 45.7653 91.1968 41.3819 91.1721 41.3571C90.8008 41.06 87.3103 37.9148 87.3103 37.9148C87.3103 37.9148 86.0478 36.1318 84.2902 37.8653Z" fill="#F2AAB8"/>
<path fill-rule="evenodd" clip-rule="evenodd" d="M28.2702 16.0724C28.1959 15.899 27.5028 15.9238 27.082 15.7999C26.6364 15.6514 26.4136 15.3294 26.3146 15.0818C25.3739 12.7786 23.9876 9.36111 23.3935 8.94011C22.6756 8.42005 21.7597 9.23729 22.1558 10.8965C22.5766 12.531 23.4925 14.8094 23.4925 14.8094L24.458 19.4899L27.2305 16.7658L28.2702 16.0724Z" fill="#DDBCC2"/>
<path fill-rule="evenodd" clip-rule="evenodd" d="M29.9293 35.8594H38.0488C35.7714 33.2839 32.8256 28.5538 28.0974 21.694C29.1866 18.4003 28.543 16.3696 29.3599 14.2645C30.0283 12.5558 29.2856 11.7633 28.1964 12.6796C26.6616 13.9921 26.6369 15.3047 24.8298 16.741C24.8298 16.741 18.344 16.8401 19.2847 19.0194C21.067 23.1551 22.6266 22.3874 23.6663 24.4181C23.8643 24.8143 26.8844 30.8322 29.9293 35.8594Z" fill="#DDBCC2"/>
<path fill-rule="evenodd" clip-rule="evenodd" d="M18.3436 17.9049C17.1554 19.2174 20.8934 22.0406 21.2647 20.9262C21.6855 19.6632 19.8537 16.2704 18.3436 17.9049Z" fill="#DDBCC2"/>
<path fill-rule="evenodd" clip-rule="evenodd" d="M21.2898 15.7257C20.9679 15.4038 20.2253 15.5028 19.8787 15.6514C17.8736 16.5925 21.5373 20.6787 22.3542 20.1091C23.0721 19.6138 22.577 18.4498 22.1314 17.4345C21.7353 16.5429 21.8096 15.7009 21.2898 15.7257Z" fill="#DDBCC2"/>
<path fill-rule="evenodd" clip-rule="evenodd" d="M22.3541 18.6975C23.468 19.9605 24.6563 19.1432 24.483 18.1031C24.3345 17.2611 23.9631 15.7257 23.5423 14.958C22.6511 13.3978 19.532 15.5276 22.3541 18.6975Z" fill="#DDBCC2"/>
<path fill-rule="evenodd" clip-rule="evenodd" d="M10.5703 95.4185H140.781C142.043 95.4185 143.083 96.4586 143.083 97.7216C143.083 98.9846 142.043 100.025 140.781 100.025H10.5703C9.30777 100.025 8.26807 98.9846 8.26807 97.7216C8.26807 96.4339 9.30777 95.4185 10.5703 95.4185Z" fill="#201049"/>
<path fill-rule="evenodd" clip-rule="evenodd" d="M5.66897 91.8277H145.682C147.292 91.8277 148.604 93.1402 148.604 94.7747C148.604 96.3844 147.292 97.6969 145.682 97.6969H5.66897C4.0599 97.6969 2.7479 96.3844 2.7479 94.7747C2.72314 93.165 4.0599 91.8277 5.66897 91.8277Z" fill="#BF8862"/>
<path d="M108.278 91.8277H102.164V97.6969H108.278V91.8277Z" fill="#A36E50"/>
<path d="M114.615 91.8277H111.447V97.6969H114.615V91.8277Z" fill="#A36E50"/>
<path d="M119.516 91.8277H117.932V97.6969H119.516V91.8277Z" fill="#A36E50"/>
<path d="M131.77 91.8277H124.938V97.6969H131.77V91.8277Z" fill="#A36E50"/>
<path d="M140.335 91.8277H136.919V97.6969H140.335V91.8277Z" fill="#A36E50"/>
<path fill-rule="evenodd" clip-rule="evenodd" d="M5.89153 92.7936H89.1174C90.0828 92.7936 90.8502 93.5861 90.8502 94.5271C90.8502 95.4929 90.0581 96.2606 89.1174 96.2606H5.89153C4.92609 96.2606 4.15869 95.4682 4.15869 94.5271C4.15869 93.5861 4.95085 92.7936 5.89153 92.7936Z" fill="#D49F81"/>
<path fill-rule="evenodd" clip-rule="evenodd" d="M121.893 84.5715H123.032C123.23 84.5715 123.403 84.7449 123.403 84.943V86.0822C123.403 86.2803 123.23 86.4537 123.032 86.4537H121.893C121.695 86.4537 121.521 86.2803 121.521 86.0822V84.943C121.521 84.7201 121.695 84.5715 121.893 84.5715Z" fill="#DAD5EB"/>
<path fill-rule="evenodd" clip-rule="evenodd" d="M125.779 84.5715H126.918C127.116 84.5715 127.29 84.7449 127.29 84.943V86.0822C127.29 86.2803 127.116 86.4537 126.918 86.4537H125.779C125.581 86.4537 125.408 86.2803 125.408 86.0822V84.943C125.383 84.7201 125.557 84.5715 125.779 84.5715Z" fill="#DAD5EB"/>
<path fill-rule="evenodd" clip-rule="evenodd" d="M129.641 84.5715H130.78C130.978 84.5715 131.151 84.7449 131.151 84.943V86.0822C131.151 86.2803 130.978 86.4537 130.78 86.4537H129.641C129.443 86.4537 129.27 86.2803 129.27 86.0822V84.943C129.27 84.7201 129.443 84.5715 129.641 84.5715Z" fill="#DAD5EB"/>
<path fill-rule="evenodd" clip-rule="evenodd" d="M133.528 84.5715H134.666C134.864 84.5715 135.038 84.7449 135.038 84.943V86.0822C135.038 86.2803 134.864 86.4537 134.666 86.4537H133.528C133.33 86.4537 133.156 86.2803 133.156 86.0822V84.943C133.156 84.7201 133.33 84.5715 133.528 84.5715Z" fill="#DAD5EB"/>
</g>
<defs>
<clipPath id="clip0">
<rect width="154" height="100" fill="white"/>
</clipPath>
</defs>
</svg>
