<svg width="84" height="84" viewBox="0 0 84 84" fill="none" xmlns="http://www.w3.org/2000/svg">
<g clip-path="url(#clip0)">
<path d="M84 49.59C84 67.6098 67.505 82.1642 42 82.1642C16.495 82.1642 0 67.6098 0 49.59C0 31.5702 16.495 4.54047 42 4.54047C67.505 4.54047 84 31.5702 84 49.59Z" fill="#F7910B"/>
<path d="M84 49.59C84 67.6098 67.505 76.6197 42 76.6197C16.495 76.6197 0 67.6098 0 49.59C0 31.5702 16.495 1.76819 42 1.76819C67.505 1.76819 84 31.5702 84 49.59Z" fill="#F7910B"/>
<path d="M42 1.76819C67.5049 1.76819 84 31.5702 84 49.59C84 67.6098 67.5049 76.6197 42 76.6197" fill="#F9A908"/>
<path d="M84 49.59C84 67.6098 67.505 76.6197 42 76.6197C16.495 76.6197 0 67.6098 0 49.59C0 31.5702 16.495 4.54047 42 4.54047C67.505 4.54047 84 31.5702 84 49.59Z" fill="#F9A908"/>
<path d="M0 49.59C0 31.5702 16.495 4.54047 42 4.54047Z" fill="#F9C55D"/>
<path d="M42 4.54047C67.5049 4.54047 84 31.5702 84 49.59C84 67.6098 67.5049 82.1642 42 82.1642" fill="#F7910B"/>
<path d="M42 4.54047C67.5049 4.54047 84 31.5702 84 49.59Z" fill="#EA7103"/>
<path d="M33.9605 19.3721C34.2377 21.1741 32.1585 20.6197 29.6634 21.0355C27.1684 21.4514 25.3664 22.6989 25.0892 20.8969C24.812 19.0949 26.6139 17.2929 29.109 17.0157C31.4654 16.4613 33.6832 17.7088 33.9605 19.3721Z" fill="#19BCA4"/>
<path d="M33.9607 19.3721C34.2379 21.1741 32.1587 20.6197 29.6636 21.0355C27.1686 21.4513 25.3666 22.6989 25.0894 20.8969" fill="#109DA0"/>
<path d="M50.0395 19.3721C49.7623 21.1741 51.8415 20.6197 54.3366 21.0355C56.8316 21.4514 58.6336 22.6989 58.9108 20.8969C59.188 19.0949 57.3861 17.2929 54.891 17.0157C52.5346 16.4613 50.3167 17.7088 50.0395 19.3721Z" fill="#19BCA4"/>
<path d="M50.0395 19.3721C49.7623 21.1741 51.8415 20.6197 54.3365 21.0355C56.8316 21.4513 58.6336 22.6989 58.9108 20.8969" fill="#109DA0"/>
<path d="M36.1784 40.3029C36.1784 41.9662 31.327 41.2732 25.3666 41.2732C19.4062 41.2732 14.5547 42.1048 14.5547 40.3029C14.5547 38.5009 19.4062 37.2534 25.3666 37.2534C31.327 37.2534 36.1784 38.6395 36.1784 40.3029Z" fill="#F9C55D"/>
<path d="M69.4455 40.3029C69.4455 41.9662 64.5941 41.2732 58.6337 41.2732C52.6733 41.2732 47.8218 42.1048 47.8218 40.3029C47.8218 38.5009 52.6733 37.2534 58.6337 37.2534C64.5941 37.2534 69.4455 38.6395 69.4455 40.3029Z" fill="#F9A908"/>
<path d="M11.9206 46.2632C12.3799 46.2632 12.7522 45.8909 12.7522 45.4315C12.7522 44.9722 12.3799 44.5999 11.9206 44.5999C11.4612 44.5999 11.0889 44.9722 11.0889 45.4315C11.0889 45.8909 11.4612 46.2632 11.9206 46.2632Z" fill="#F7910B"/>
<path d="M5.68296 49.7286C6.52505 49.7286 7.20771 49.0459 7.20771 48.2038C7.20771 47.3617 6.52505 46.6791 5.68296 46.6791C4.84086 46.6791 4.1582 47.3617 4.1582 48.2038C4.1582 49.0459 4.84086 49.7286 5.68296 49.7286Z" fill="#F7910B"/>
<path d="M9.84119 42.9365C9.9943 42.9365 10.1184 42.8124 10.1184 42.6593C10.1184 42.5062 9.9943 42.3821 9.84119 42.3821C9.68808 42.3821 9.56396 42.5062 9.56396 42.6593C9.56396 42.8124 9.68808 42.9365 9.84119 42.9365Z" fill="#F7910B"/>
<path d="M16.2177 45.4316C16.3708 45.4316 16.4949 45.3075 16.4949 45.1544C16.4949 45.0013 16.3708 44.8771 16.2177 44.8771C16.0645 44.8771 15.9404 45.0013 15.9404 45.1544C15.9404 45.3075 16.0645 45.4316 16.2177 45.4316Z" fill="#F7910B"/>
<path d="M70.5547 46.9564C71.1672 46.9564 71.6636 46.4599 71.6636 45.8474C71.6636 45.235 71.1672 44.7385 70.5547 44.7385C69.9423 44.7385 69.4458 45.235 69.4458 45.8474C69.4458 46.4599 69.9423 46.9564 70.5547 46.9564Z" fill="#F9A908"/>
<path d="M74.0199 48.0653C74.173 48.0653 74.2971 47.9411 74.2971 47.788C74.2971 47.6349 74.173 47.5108 74.0199 47.5108C73.8668 47.5108 73.7427 47.6349 73.7427 47.788C73.7427 47.9411 73.8668 48.0653 74.0199 48.0653Z" fill="#F9A908"/>
<path d="M66.6732 36.0058C66.9028 36.0058 67.089 35.8196 67.089 35.59C67.089 35.3603 66.9028 35.1741 66.6732 35.1741C66.4435 35.1741 66.2573 35.3603 66.2573 35.59C66.2573 35.8196 66.4435 36.0058 66.6732 36.0058Z" fill="#F9A908"/>
<path d="M65.9802 53.4712C66.9754 53.4712 67.7822 52.6644 67.7822 51.6692C67.7822 50.674 66.9754 49.8672 65.9802 49.8672C64.985 49.8672 64.1782 50.674 64.1782 51.6692C64.1782 52.6644 64.985 53.4712 65.9802 53.4712Z" fill="#F9A908"/>
<path d="M75.9601 52.6395C76.4194 52.6395 76.7918 52.2671 76.7918 51.8078C76.7918 51.3485 76.4194 50.9761 75.9601 50.9761C75.5008 50.9761 75.1284 51.3485 75.1284 51.8078C75.1284 52.2671 75.5008 52.6395 75.9601 52.6395Z" fill="#F9A908"/>
<path d="M10.5349 51.6692C10.9176 51.6692 11.2279 51.3589 11.2279 50.9762C11.2279 50.5934 10.9176 50.2831 10.5349 50.2831C10.1521 50.2831 9.8418 50.5934 9.8418 50.9762C9.8418 51.3589 10.1521 51.6692 10.5349 51.6692Z" fill="#F7910B"/>
<path d="M11.6438 39.8871C11.95 39.8871 12.1983 39.6388 12.1983 39.3326C12.1983 39.0264 11.95 38.7781 11.6438 38.7781C11.3376 38.7781 11.0894 39.0264 11.0894 39.3326C11.0894 39.6388 11.3376 39.8871 11.6438 39.8871Z" fill="#F7910B"/>
<path d="M4.29721 21.7286C5.13931 21.7286 5.82197 21.0459 5.82197 20.2038C5.82197 19.3617 5.13931 18.6791 4.29721 18.6791C3.45512 18.6791 2.77246 19.3617 2.77246 20.2038C2.77246 21.0459 3.45512 21.7286 4.29721 21.7286Z" fill="#F9A908"/>
<path d="M8.73256 16.184C9.19189 16.184 9.56425 15.8116 9.56425 15.3523C9.56425 14.893 9.19189 14.5206 8.73256 14.5206C8.27324 14.5206 7.90088 14.893 7.90088 15.3523C7.90088 15.8116 8.27324 16.184 8.73256 16.184Z" fill="#F9A908"/>
<path d="M79.703 23.8078C79.8561 23.8078 79.9802 23.6836 79.9802 23.5305C79.9802 23.3774 79.8561 23.2533 79.703 23.2533C79.5499 23.2533 79.4258 23.3774 79.4258 23.5305C79.4258 23.6836 79.5499 23.8078 79.703 23.8078Z" fill="#F9A908"/>
<path d="M78.5943 20.6196C79.2067 20.6196 79.7032 20.1231 79.7032 19.5107C79.7032 18.8983 79.2067 18.4018 78.5943 18.4018C77.9818 18.4018 77.4854 18.8983 77.4854 19.5107C77.4854 20.1231 77.9818 20.6196 78.5943 20.6196Z" fill="#F9A908"/>
<path d="M82.8915 20.2038C82.8915 20.6196 82.6143 20.8968 82.1984 20.8968C81.7826 20.8968 81.5054 20.6196 81.5054 20.2038C81.5054 19.7879 81.7826 19.5107 82.1984 19.5107C82.4757 19.5107 82.8915 19.9265 82.8915 20.2038Z" fill="#F9A908"/>
<path d="M5.96059 25.1939C6.41991 25.1939 6.79227 24.8215 6.79227 24.3622C6.79227 23.9029 6.41991 23.5305 5.96059 23.5305C5.50126 23.5305 5.12891 23.9029 5.12891 24.3622C5.12891 24.8215 5.50126 25.1939 5.96059 25.1939Z" fill="#F9A908"/>
<path d="M30.9109 80.7781C30.9109 83.9662 28.5545 80.9167 25.3663 80.9167C22.1782 80.9167 19.8218 81.194 19.8218 78.0059V36.5603C19.8218 33.3722 22.1782 30.8771 25.3663 30.8771C28.5545 30.8771 30.9109 33.3722 30.9109 36.5603V80.7781Z" fill="#98DDED"/>
<path d="M25.3662 30.8771C28.5543 30.8771 30.9107 33.3722 30.9107 36.5603V80.7781C30.9107 83.9662 28.4157 80.9167 25.2275 80.9167" fill="#78C7DD"/>
<path d="M53.0889 80.7781C53.0889 83.9662 55.4453 80.9167 58.6334 80.9167C61.8215 80.9167 64.178 81.194 64.178 78.0059V36.5603C64.178 33.3722 61.8215 30.8771 58.6334 30.8771C55.4453 30.8771 53.0889 33.3722 53.0889 36.5603V80.7781Z" fill="#78C7DD"/>
<path d="M58.6339 30.8771C55.4458 30.8771 53.0894 33.3722 53.0894 36.5603V80.7781C53.0894 83.9662 55.5844 80.9167 58.7725 80.9167" fill="#98DDED"/>
<path d="M50.5944 60.1247C50.5944 68.5801 46.7132 65.8078 42.0003 65.8078C37.1488 65.8078 33.4062 68.5801 33.4062 60.1247C33.4062 51.6692 37.2874 44.7385 42.0003 44.7385C46.8518 44.7385 50.5944 51.5306 50.5944 60.1247Z" fill="#99144A"/>
<path d="M50.5944 60.1246C50.5944 68.5801 46.7132 65.8078 42.0003 65.8078C37.1488 65.8078 33.4062 68.5801 33.4062 60.1246" fill="#6D0C38"/>
<path d="M41.9999 52.3623C44.6336 52.3623 47.1286 51.9464 49.2078 51.392C47.5445 47.3722 44.9108 44.7385 41.9999 44.7385C39.089 44.7385 36.4554 47.3722 34.792 51.392C36.8712 51.9464 39.3663 52.3623 41.9999 52.3623Z" fill="#EADAEA"/>
<path d="M30.7722 38.2237C30.2178 38.085 29.6633 37.8078 29.2475 37.2534C27.7227 35.0355 24.5346 34.4811 22.3168 36.0058C21.2079 36.6989 19.8217 36.4217 19.1286 35.4514C18.4356 34.3425 18.7128 32.9563 19.6831 32.2633C23.9801 29.2138 29.9405 30.3227 32.99 34.7583C33.6831 35.7286 33.4059 37.2534 32.4356 37.9464C31.8811 38.2237 31.3267 38.3623 30.7722 38.2237Z" fill="#1E4784"/>
<path d="M32.99 34.6197C33.6831 35.59 33.4059 37.1147 32.4356 37.8078C31.8811 38.2236 31.3267 38.2236 30.7722 38.2236C30.2178 38.085 29.6633 37.8078 29.2475 37.2533C27.7227 35.0355 24.5346 34.4811 22.3168 36.0058C21.2079 36.6989 19.8217 36.4217 19.1286 35.4514C18.4356 34.3425 18.7128 32.9563 19.6831 32.2632" fill="#02243E"/>
<path d="M53.2278 38.2237C53.7823 38.085 54.3367 37.8078 54.7526 37.2534C56.2773 35.0355 59.4654 34.4811 61.6833 36.0058C62.7922 36.6989 64.1783 36.4217 64.8714 35.4514C65.5645 34.3425 65.2872 32.9563 64.3169 32.2633C60.0199 29.2138 54.0595 30.3227 51.01 34.7583C50.3169 35.7286 50.5942 37.2534 51.5645 37.9464C52.1189 38.2237 52.6734 38.3623 53.2278 38.2237Z" fill="#1E4784"/>
<path d="M51.01 34.6197C50.3169 35.59 50.5942 37.1147 51.5645 37.8078C52.1189 38.2236 52.6734 38.2236 53.2278 38.2236C53.7823 38.085 54.3367 37.8078 54.7526 37.2533C56.2773 35.0355 59.4654 34.4811 61.6833 36.0058C62.7922 36.6989 64.1783 36.4217 64.8714 35.4514C65.5645 34.3425 65.2872 32.9563 64.3169 32.2632" fill="#02243E"/>
</g>
<defs>
<clipPath id="clip0">
<rect width="84" height="84" fill="white"/>
</clipPath>
</defs>
</svg>
