<svg width="120" height="120" viewBox="0 0 120 120" fill="none" xmlns="http://www.w3.org/2000/svg">
<path d="M49.6284 100.54C77.0375 100.54 99.2569 78.3207 99.2569 50.9116C99.2569 23.5026 77.0375 1.2832 49.6284 1.2832C22.2194 1.2832 0 23.5026 0 50.9116C0 78.3207 22.2194 100.54 49.6284 100.54Z" fill="#365E7D"/>
<path d="M99.2568 50.9116C99.2568 23.5027 77.0374 1.2832 49.6284 1.2832C48.5125 1.2832 47.406 1.32375 46.3085 1.39641C71.0135 3.02859 90.7764 22.7363 92.4932 47.4176C92.6099 49.0945 91.2353 50.4813 89.5546 50.4455C89.2971 50.4401 89.0388 50.4373 88.7798 50.4373C68.3114 50.4373 51.7183 67.0303 51.7183 87.4987C51.7183 89.4209 51.8653 91.3085 52.1479 93.1514C52.7067 96.7941 50.0606 100.174 46.3837 100.422C46.3586 100.424 46.3335 100.425 46.3085 100.427C47.406 100.5 48.5125 100.54 49.6284 100.54C77.1993 100.54 99.2568 78.1376 99.2568 50.9116Z" fill="#2B4D66"/>
<path d="M49.6285 89.0089C70.6685 89.0089 87.7247 71.9526 87.7247 50.9127C87.7247 29.8727 70.6685 12.8164 49.6285 12.8164C28.5885 12.8164 11.5322 29.8727 11.5322 50.9127C11.5322 71.9526 28.5885 89.0089 49.6285 89.0089Z" fill="#F4FBFF"/>
<path d="M87.7247 50.9127C87.7247 29.8728 70.6686 12.8164 49.6285 12.8164C48.5963 12.8164 47.5742 12.8588 46.5629 12.9395C66.2422 14.5067 81.7081 31.0271 81.5928 51.136C81.5921 51.1369 81.5914 51.1377 81.5907 51.1386C65.5156 54.2989 53.5264 67.7012 51.9059 83.6937C51.6272 86.443 49.4743 88.6416 46.7206 88.8727C46.6681 88.8772 46.6156 88.8814 46.5629 88.8856C68.7462 90.6533 87.7247 73.1762 87.7247 50.9127Z" fill="#DAF1F4"/>
<path d="M49.6285 24.6013C48.6282 24.6013 47.8177 23.7906 47.8177 22.7905V20.2307C47.8177 19.2304 48.6284 18.4199 49.6285 18.4199C50.6288 18.4199 51.4393 19.2306 51.4393 20.2307V22.7905C51.4393 23.7906 50.6288 24.6013 49.6285 24.6013Z" fill="#365E7D"/>
<path d="M69.5128 32.8379C69.0492 32.8379 68.5859 32.661 68.2322 32.3073C67.5251 31.6002 67.5251 30.4536 68.2324 29.7463L70.0425 27.9365C70.7496 27.2294 71.8962 27.2296 72.6035 27.9367C73.3106 28.6438 73.3106 29.7904 72.6033 30.4977L70.7932 32.3076C70.4398 32.661 69.9762 32.8379 69.5128 32.8379Z" fill="#365E7D"/>
<path d="M80.309 52.7212H77.7492C76.7489 52.7212 75.9384 51.9105 75.9384 50.9104C75.9384 49.9103 76.7491 49.0996 77.7492 49.0996H80.3093C81.3096 49.0996 82.1201 49.9103 82.1201 50.9104C82.1201 51.9105 81.3094 52.7212 80.309 52.7212Z" fill="#365E7D"/>
<path d="M50.3733 84.1484C49.373 84.1484 48.5625 83.3377 48.5625 82.3377V79.7776C48.5625 78.7773 49.3732 77.9668 50.3733 77.9668C51.3736 77.9668 52.1841 78.7775 52.1841 79.7776V82.3377C52.1841 83.338 51.3736 84.1484 50.3733 84.1484Z" fill="#365E7D"/>
<path d="M27.9339 74.4163C27.4706 74.4163 27.007 74.2393 26.6533 73.8859C25.9462 73.1785 25.9462 72.0322 26.6533 71.3246L28.4634 69.5145C29.1707 68.8077 30.3171 68.8077 31.0246 69.5145C31.7317 70.2219 31.7317 71.3682 31.0246 72.0758L29.2146 73.8859C28.8607 74.2395 28.3971 74.4163 27.9339 74.4163Z" fill="#365E7D"/>
<path d="M21.5076 52.7212H18.9478C17.9475 52.7212 17.137 51.9105 17.137 50.9104C17.137 49.9103 17.9477 49.0996 18.9478 49.0996H21.5079C22.5082 49.0996 23.3187 49.9103 23.3187 50.9104C23.3187 51.9105 22.508 52.7212 21.5076 52.7212Z" fill="#365E7D"/>
<path d="M29.744 32.8379C29.2807 32.8379 28.8171 32.661 28.4637 32.3076L26.6536 30.4977C25.9462 29.7906 25.9462 28.644 26.6533 27.9367C27.3607 27.2294 28.5073 27.2296 29.2144 27.9365L31.0244 29.7463C31.7318 30.4534 31.7318 31.6 31.0247 32.3073C30.671 32.661 30.2074 32.8379 29.744 32.8379Z" fill="#365E7D"/>
<path d="M49.6289 53.468C49.1657 53.468 48.7099 53.2904 48.3651 52.9545L41.9962 46.7527C41.2797 46.055 41.2645 44.9087 41.9622 44.192C42.6597 43.4755 43.8063 43.46 44.523 44.158L47.8176 47.3661V34.5198C47.8176 33.5195 48.6283 32.709 49.6284 32.709C50.6287 32.709 51.4392 33.5197 51.4392 34.5198V51.657C51.4392 52.3852 51.0032 53.0422 50.3325 53.3255C50.1051 53.4214 49.8661 53.468 49.6289 53.468Z" fill="#2B4D66"/>
<path d="M88.7799 118.718C106.022 118.718 120 104.74 120 87.4975C120 70.2551 106.022 56.2773 88.7799 56.2773C71.5374 56.2773 57.5597 70.2551 57.5597 87.4975C57.5597 104.74 71.5374 118.718 88.7799 118.718Z" fill="#EAB14D"/>
<path d="M88.7798 56.2773C87.5644 56.2773 86.3658 56.3493 85.1866 56.4845C100.736 58.2667 112.814 71.4707 112.814 87.4975C112.814 103.524 100.736 116.728 85.1866 118.51C86.366 118.646 87.5644 118.718 88.7798 118.718C106.022 118.718 120 104.74 120 87.4975C120 70.2552 106.022 56.2773 88.7798 56.2773Z" fill="#E49542"/>
<path d="M88.2077 94.2198C86.2076 94.2198 84.5859 92.5982 84.5859 90.598V68.9753C84.5859 66.9752 86.2076 65.3535 88.2077 65.3535C90.2079 65.3535 91.8295 66.9752 91.8295 68.9753V90.5983C91.8293 92.5984 90.2079 94.2198 88.2077 94.2198Z" fill="#F4FBFF"/>
<path d="M88.2077 108.224C86.2076 108.224 84.5859 106.603 84.5859 104.603V102.296C84.5859 100.295 86.2076 98.6738 88.2077 98.6738C90.2079 98.6738 91.8295 100.295 91.8295 102.296V104.603C91.8293 106.603 90.2079 108.224 88.2077 108.224Z" fill="#F4FBFF"/>
<path d="M88.2077 65.3535C87.5473 65.3535 86.9299 65.5333 86.397 65.8419C87.4784 66.4684 88.2077 67.6354 88.2077 68.9753V90.5983C88.2077 91.938 87.4784 93.1052 86.397 93.7316C86.9302 94.0403 87.5473 94.2201 88.2077 94.2201C90.2079 94.2201 91.8295 92.5984 91.8295 90.5983V68.9753C91.8293 66.9752 90.2079 65.3535 88.2077 65.3535Z" fill="#DAF1F4"/>
<path d="M88.2077 98.6738C87.5473 98.6738 86.9299 98.8536 86.397 99.1623C87.4784 99.7888 88.2077 100.956 88.2077 102.296V104.603C88.2077 105.942 87.4784 107.109 86.397 107.736C86.9302 108.045 87.5473 108.224 88.2077 108.224C90.2079 108.224 91.8295 106.603 91.8295 104.603V102.296C91.8293 100.295 90.2079 98.6738 88.2077 98.6738Z" fill="#DAF1F4"/>
</svg>
