<svg width="38" height="38" viewBox="0 0 38 38" fill="none" xmlns="http://www.w3.org/2000/svg">
<g clip-path="url(#clip0)">
<path d="M5.90967 18.2959H32.0906V32.0788H5.90967V18.2959Z" fill="#407093"/>
<path d="M28.5564 18.2959V23.9274C28.5564 26.6018 26.3884 28.7699 23.7139 28.7699H5.90967V32.0788H32.0906V18.2959H28.5564Z" fill="#2B4D66"/>
<path d="M4.58008 8.45106L18.8377 2.2679C19.0279 2.18544 19.2438 2.18544 19.434 2.2679L33.6916 8.45106H4.58008Z" fill="#F9F6F9"/>
<path d="M11.8579 8.45065L18.9867 5.35907C19.0818 5.31781 19.1897 5.31781 19.2848 5.35907L26.4136 8.45065H11.8579Z" fill="#D0CEE7"/>
<path d="M19.285 5.36005C19.1899 5.31879 19.0819 5.31879 18.9868 5.36005L17.6079 5.95803L23.3579 8.45163H26.4138L19.285 5.36005Z" fill="#BEB9DD"/>
<path d="M19.4338 2.2679C19.2436 2.18544 19.0278 2.18544 18.8375 2.2679L17.5723 2.8166L30.5646 8.45099H33.6915L19.4338 2.2679Z" fill="#DDDAEC"/>
<path d="M2.6626 20.0977H7.43523V31.4899H2.6626V20.0977Z" fill="#F9F6F9"/>
<path d="M5.79604 20.0957V26.9007C5.79604 28.0764 4.84292 29.0295 3.66722 29.0295H2.6626V31.488H7.43523V20.0957H5.79604Z" fill="#D0CEE7"/>
<path d="M5.00437 27.9236C4.69398 27.9236 4.44238 27.672 4.44238 27.3616V24.9321C4.44238 24.6217 4.69398 24.3701 5.00437 24.3701C5.31475 24.3701 5.56635 24.6217 5.56635 24.9321V27.3616C5.56635 27.672 5.31482 27.9236 5.00437 27.9236Z" fill="#DDDAEC"/>
<path d="M21.5221 31.4899H16.7495L17.2025 30.2561L16.7495 29.0314V20.0977H21.5221V31.4899Z" fill="#F9F6F9"/>
<path d="M19.883 20.0957V26.9007C19.883 28.0764 18.9298 29.0295 17.7541 29.0295H16.7495V31.488H21.5221V20.0957H19.883Z" fill="#D0CEE7"/>
<path d="M19.0918 27.9236C18.7814 27.9236 18.5298 27.672 18.5298 27.3616V24.9321C18.5298 24.6217 18.7814 24.3701 19.0918 24.3701C19.4022 24.3701 19.6538 24.6217 19.6538 24.9321V27.3616C19.6538 27.672 19.4022 27.9236 19.0918 27.9236Z" fill="#DDDAEC"/>
<path d="M35.3372 31.4899H30.5645L31.0418 30.1108L30.5645 29.0314V20.0977H35.3372V31.4899Z" fill="#F9F6F9"/>
<path d="M33.6979 20.0957V26.9007C33.6979 28.0764 32.7448 29.0295 31.5691 29.0295H30.5645V31.488H35.3371V20.0957H33.6979Z" fill="#D0CEE7"/>
<path d="M32.9062 27.9236C32.5958 27.9236 32.3442 27.672 32.3442 27.3616V24.9321C32.3442 24.6217 32.5958 24.3701 32.9062 24.3701C33.2166 24.3701 33.4682 24.6217 33.4682 24.9321V27.3616C33.4682 27.672 33.2166 27.9236 32.9062 27.9236Z" fill="#DDDAEC"/>
<path d="M36.0987 13.5261L37.2042 12.1967C37.7185 11.5783 38 10.7995 38 9.99526V7.93153C38 7.76602 37.8658 7.63184 37.7003 7.63184H0.299695C0.134188 7.63184 0 7.76602 0 7.93153V10.1071C0 10.9113 0.281512 11.6902 0.795773 12.3085L1.89206 13.6268C2.03063 13.7934 2.03063 14.0351 1.89206 14.2018L0.795773 15.52C0.281512 16.1383 0 16.9171 0 17.7214V19.7963C0 19.9618 0.134188 20.096 0.299695 20.096H37.7002C37.8657 20.096 37.9999 19.9618 37.9999 19.7963V17.6319C37.9999 16.8277 37.7184 16.0488 37.2042 15.4305L36.0986 14.1011C35.9601 13.9344 35.9601 13.6927 36.0987 13.5261Z" fill="#ED7B44"/>
<path d="M37.2042 12.1967C37.7185 11.5783 38 10.7995 38 9.99526V7.93153C38 7.76602 37.8658 7.63184 37.7003 7.63184H34.7486V9.99533C34.7486 10.7996 34.467 11.5784 33.9528 12.1967L32.8471 13.5262C32.7086 13.6928 32.7086 13.9346 32.8471 14.1012L33.9527 15.4306C34.2537 15.7926 34.4745 16.2098 34.6062 16.6548C34.6342 16.7495 34.5627 16.8447 34.4639 16.8447H0.113703C0.0388906 17.1288 0 17.4233 0 17.7214V19.7963C0 19.9618 0.134188 20.096 0.299695 20.096H37.7002C37.8657 20.096 37.9999 19.9618 37.9999 19.7963V17.6319C37.9999 16.8277 37.7184 16.0488 37.2042 15.4305L36.0986 14.1011C35.96 13.9345 35.96 13.6928 36.0986 13.5261L37.2042 12.1967Z" fill="#FD8B54"/>
<path d="M7.78475 19.2764H2.35936C1.14529 19.2764 0.119069 20.2282 0.0858195 21.4418C0.0513078 22.7009 1.06172 23.7325 2.31305 23.7325C3.25362 23.7325 4.05764 23.1494 4.38442 22.3251C4.43029 22.2093 4.53902 22.1307 4.66356 22.1307H5.43462C5.55871 22.1307 5.66737 22.2087 5.71301 22.3241C6.05405 23.1855 6.91624 23.7839 7.91107 23.729C9.02569 23.6674 9.93576 22.767 10.008 21.653C10.0921 20.3553 9.06443 19.2764 7.78475 19.2764Z" fill="#D0CEE7"/>
<path d="M7.94588 19.2832C8.19808 19.6708 8.33353 20.1412 8.30087 20.645C8.22858 21.759 7.31851 22.6595 6.20389 22.721C6.10689 22.7264 6.01159 22.7238 5.91748 22.717C6.33593 23.3605 7.07604 23.7754 7.91093 23.7294C9.02555 23.6678 9.93562 22.7673 10.0079 21.6534C10.0885 20.4107 9.14934 19.3694 7.94588 19.2832Z" fill="#BEB9DD"/>
<path d="M21.8717 19.2764H16.4463C15.2322 19.2764 14.206 20.2282 14.1727 21.4418C14.1382 22.7009 15.1486 23.7325 16.4 23.7325C17.3405 23.7325 18.1445 23.1494 18.4713 22.3251C18.5172 22.2093 18.6259 22.1307 18.7504 22.1307H19.5215C19.6455 22.1307 19.7542 22.2087 19.7998 22.3241C20.1409 23.1855 21.0031 23.7839 21.9979 23.729C23.1125 23.6674 24.0226 22.767 24.0949 21.653C24.1791 20.3553 23.1513 19.2764 21.8717 19.2764Z" fill="#D0CEE7"/>
<path d="M22.0328 19.2832C22.285 19.6708 22.4204 20.1412 22.3878 20.645C22.3155 21.759 21.4054 22.6595 20.2908 22.721C20.1938 22.7264 20.0985 22.7238 20.0044 22.717C20.4228 23.3605 21.163 23.7754 21.9978 23.7294C23.1125 23.6678 24.0225 22.7673 24.0948 21.6534C24.1754 20.4107 23.2363 19.3694 22.0328 19.2832Z" fill="#BEB9DD"/>
<path d="M35.6866 19.2764H30.2612C29.0471 19.2764 28.0209 20.2282 27.9877 21.4418C27.9532 22.7009 28.9635 23.7325 30.2149 23.7325C31.1555 23.7325 31.9595 23.1494 32.2863 22.3251C32.3321 22.2093 32.4409 22.1307 32.5653 22.1307H33.3364C33.4605 22.1307 33.5692 22.2087 33.6148 22.3241C33.9558 23.1855 34.818 23.7839 35.8129 23.729C36.9275 23.6674 37.8375 22.767 37.9098 21.653C37.9941 20.3553 36.9664 19.2764 35.6866 19.2764Z" fill="#D0CEE7"/>
<path d="M35.8477 19.2832C36.0999 19.6708 36.2354 20.1412 36.2027 20.645C36.1304 21.759 35.2204 22.6595 34.1057 22.721C34.0087 22.7264 33.9134 22.7238 33.8193 22.717C34.2378 23.3605 34.9779 23.7754 35.8128 23.7294C36.9274 23.6678 37.8375 22.7673 37.9098 21.6534C37.9904 20.4107 37.0512 19.3694 35.8477 19.2832Z" fill="#BEB9DD"/>
<path d="M13.4144 31.3315H10.1021V28.3671C10.1021 27.5717 10.5687 26.8852 11.2432 26.5666C11.5007 26.445 13.4144 27.268 13.4144 28.3671V31.3315Z" fill="#E77D31"/>
<path d="M27.556 31.3315H24.0532V28.3671C24.0532 27.5717 24.5199 26.8852 25.1943 26.5666C25.4519 26.445 27.556 27.268 27.556 28.3671V31.3315Z" fill="#E77D31"/>
<path d="M12.0926 26.3779C11.7889 26.3779 11.5012 26.4462 11.2437 26.5679C11.9182 26.8865 12.3849 27.5726 12.3849 28.368V31.3323H14.0827V28.368C14.0827 27.2689 13.1917 26.3779 12.0926 26.3779Z" fill="#D3732E"/>
<path d="M26.0433 26.3779C25.7395 26.3779 25.4519 26.4462 25.1943 26.5679C25.8688 26.8865 26.3356 27.5726 26.3356 28.368V31.3323H28.0334V28.368C28.0334 27.2689 27.1424 26.3779 26.0433 26.3779Z" fill="#D3732E"/>
<path d="M36.3649 33.8499H1.63428V31.1406C1.63428 30.9767 1.7672 30.8438 1.93115 30.8438H36.0681C36.2321 30.8438 36.365 30.9767 36.365 31.1406V33.8499H36.3649Z" fill="#F9F6F9"/>
<path d="M36.3649 33.8499H1.63428V31.1406C1.63428 30.9767 1.7672 30.8438 1.93115 30.8438H36.0681C36.2321 30.8438 36.365 30.9767 36.365 31.1406V33.8499H36.3649Z" fill="#F9F6F9"/>
<path d="M36.0652 30.8438H35.1005V31.7799C35.1005 31.9454 34.9663 32.0796 34.8008 32.0796H1.63428V33.8498H36.365V31.1434C36.3649 30.9779 36.2308 30.8438 36.0652 30.8438Z" fill="#DDDAEC"/>
<path d="M37.618 35.792H0.381836C0.217887 35.792 0.0849609 35.6591 0.0849609 35.4951V33.6172C0.0849609 33.4532 0.217887 33.3203 0.381836 33.3203H37.6181C37.782 33.3203 37.9149 33.4532 37.9149 33.6172V35.4951C37.9149 35.6591 37.782 35.792 37.618 35.792Z" fill="#D0CEE7"/>
<path d="M37.6151 33.3203H36.7174V34.2948C36.7174 34.4603 36.5832 34.5945 36.4177 34.5945H0.0849609V35.4922C0.0849609 35.6577 0.219148 35.7919 0.384656 35.7919H37.6151C37.7807 35.7919 37.9148 35.6577 37.9148 35.4922V33.62C37.9148 33.4546 37.7807 33.3203 37.6151 33.3203Z" fill="#BEB9DD"/>
<path d="M18.9002 13.45C17.7652 13.155 17.4002 12.85 17.4002 12.375C17.4002 11.83 17.9052 11.45 18.7502 11.45C19.6402 11.45 19.9702 11.875 20.0002 12.5H21.1052C21.0702 11.64 20.5452 10.85 19.5002 10.595V9.5H18.0002V10.58C17.0302 10.79 16.2502 11.42 16.2502 12.385C16.2502 13.54 17.2052 14.115 18.6002 14.45C19.8502 14.75 20.1002 15.19 20.1002 15.655C20.1002 16 19.8552 16.55 18.7502 16.55C17.7202 16.55 17.3152 16.09 17.2602 15.5H16.1602C16.2202 16.595 17.0402 17.21 18.0002 17.415V18.5H19.5002V17.425C20.4752 17.24 21.2502 16.675 21.2502 15.65C21.2502 14.23 20.0352 13.745 18.9002 13.45Z" fill="white"/>
<path d="M26.9002 13.45C25.7652 13.155 25.4002 12.85 25.4002 12.375C25.4002 11.83 25.9052 11.45 26.7502 11.45C27.6402 11.45 27.9702 11.875 28.0002 12.5H29.1052C29.0702 11.64 28.5452 10.85 27.5002 10.595V9.5H26.0002V10.58C25.0302 10.79 24.2502 11.42 24.2502 12.385C24.2502 13.54 25.2052 14.115 26.6002 14.45C27.8502 14.75 28.1002 15.19 28.1002 15.655C28.1002 16 27.8552 16.55 26.7502 16.55C25.7202 16.55 25.3152 16.09 25.2602 15.5H24.1602C24.2202 16.595 25.0402 17.21 26.0002 17.415V18.5H27.5002V17.425C28.4752 17.24 29.2502 16.675 29.2502 15.65C29.2502 14.23 28.0352 13.745 26.9002 13.45Z" fill="white"/>
<path d="M10.9002 13.45C9.76516 13.155 9.40016 12.85 9.40016 12.375C9.40016 11.83 9.90516 11.45 10.7502 11.45C11.6402 11.45 11.9702 11.875 12.0002 12.5H13.1052C13.0702 11.64 12.5452 10.85 11.5002 10.595V9.5H10.0002V10.58C9.03016 10.79 8.25016 11.42 8.25016 12.385C8.25016 13.54 9.20516 14.115 10.6002 14.45C11.8502 14.75 12.1002 15.19 12.1002 15.655C12.1002 16 11.8552 16.55 10.7502 16.55C9.72016 16.55 9.31516 16.09 9.26016 15.5H8.16016C8.22016 16.595 9.04016 17.21 10.0002 17.415V18.5H11.5002V17.425C12.4752 17.24 13.2502 16.675 13.2502 15.65C13.2502 14.23 12.0352 13.745 10.9002 13.45Z" fill="white"/>
</g>
<defs>
<clipPath id="clip0">
<rect width="38" height="38" fill="white"/>
</clipPath>
</defs>
</svg>
