<svg width="28" height="28" viewBox="0 0 28 28" fill="none" xmlns="http://www.w3.org/2000/svg">
<path d="M14.0001 12.8331C12.7167 12.8331 11.6667 13.8831 11.6667 15.1664C11.6667 16.4497 12.7167 17.4997 14.0001 17.4997C15.2834 17.4997 16.3334 16.4497 16.3334 15.1664C16.3334 13.8831 15.2834 12.8331 14.0001 12.8331ZM21.0001 15.1664C21.0001 11.0131 17.3717 7.69974 13.1251 8.22474C10.0684 8.59807 7.5484 11.0364 7.08173 14.0814C6.69673 16.5897 7.6534 18.8764 9.3334 20.3814C9.8934 20.8831 10.7684 20.7664 11.1534 20.1131L11.1651 20.1014C11.4451 19.6114 11.3284 19.0164 10.9084 18.6314C9.70673 17.5464 9.0534 15.8664 9.48506 14.0347C9.87006 12.3781 11.2117 11.0364 12.8684 10.6397C15.9251 9.90474 18.6667 12.2147 18.6667 15.1664C18.6667 16.5431 18.0601 17.7681 17.1151 18.6197C16.6951 18.9931 16.5667 19.5997 16.8467 20.0897L16.8584 20.1014C17.2201 20.7197 18.0601 20.9064 18.6084 20.4281C20.0667 19.1447 21.0001 17.2664 21.0001 15.1664ZM12.6351 3.5814C7.24506 4.18807 2.8934 8.63307 2.39173 14.0347C1.9834 18.3514 3.93173 22.2247 7.08173 24.5464C7.64173 24.9547 8.43506 24.7797 8.78506 24.1847C9.07673 23.6831 8.9484 23.0297 8.48173 22.6797C5.82173 20.7081 4.2234 17.3714 4.79506 13.6964C5.42506 9.61307 8.83173 6.35807 12.9384 5.90307C18.5617 5.2614 23.3334 9.65974 23.3334 15.1664C23.3334 18.2581 21.8284 20.9764 19.5184 22.6797C19.0517 23.0297 18.9234 23.6714 19.2151 24.1847C19.5651 24.7914 20.3584 24.9547 20.9184 24.5464C23.8001 22.4231 25.6667 19.0164 25.6667 15.1664C25.6667 8.2714 19.6817 2.7764 12.6351 3.5814Z" fill="#5CFC59"/>
</svg>
