<svg width="28" height="28" viewBox="0 0 28 28" fill="none" xmlns="http://www.w3.org/2000/svg">
<path d="M3.16159 3.58134C2.70659 4.03634 2.70659 4.77134 3.16159 5.22634L4.78325 6.84801C3.25492 8.83134 2.33325 11.3047 2.33325 13.9997C2.33325 17.8497 4.19992 21.2563 7.06992 23.3797C7.62992 23.788 8.42325 23.6247 8.77325 23.018C9.06492 22.5163 8.93659 21.863 8.46992 21.513C6.17159 19.8097 4.66659 17.0913 4.66659 13.9997C4.66659 11.9463 5.33159 10.0563 6.45159 8.52801L8.11992 10.208C7.41992 11.293 6.99992 12.5997 6.99992 13.9997C6.99992 16.0997 7.93325 17.978 9.40325 19.2613C9.93992 19.728 10.7916 19.553 11.1533 18.9347L11.1649 18.923C11.4449 18.433 11.3166 17.8263 10.8966 17.453C9.93992 16.6013 9.33325 15.3763 9.33325 13.9997C9.33325 13.2413 9.53159 12.5413 9.84659 11.9113L11.6899 13.7547L11.6666 13.9997C11.6666 15.283 12.7166 16.333 13.9999 16.333L14.2449 16.3097L22.1899 24.2547C22.6449 24.7097 23.3799 24.7097 23.8349 24.2547C24.2899 23.7997 24.2899 23.0647 23.8349 22.6097L4.81825 3.58134C4.36325 3.12634 3.61659 3.12634 3.16159 3.58134ZM20.6616 16.123C20.8716 15.458 20.9999 14.7347 20.9999 13.9997C20.9999 10.138 17.8616 6.99967 13.9999 6.99967C13.2649 6.99967 12.5416 7.12801 11.8766 7.33801L13.8833 9.34467C13.9183 9.34467 13.9533 9.33301 13.9999 9.33301C16.5783 9.33301 18.6666 11.4213 18.6666 13.9997C18.6666 14.0463 18.6549 14.0813 18.6549 14.128L20.6616 16.123ZM13.9999 4.66634C19.1566 4.66634 23.3333 8.84301 23.3333 13.9997C23.3333 15.3997 22.9949 16.7063 22.4349 17.908L24.1733 19.6463C25.1183 17.9663 25.6666 16.053 25.6666 13.9997C25.6666 7.55967 20.4399 2.33301 13.9999 2.33301C11.9466 2.33301 10.0333 2.89301 8.35325 3.82634L10.0799 5.55301C11.2699 4.99301 12.5999 4.66634 13.9999 4.66634Z" fill="white" fill-opacity="0.5"/>
</svg>
