<svg width="202" height="202" viewBox="0 0 202 202" fill="none" xmlns="http://www.w3.org/2000/svg">
<path d="M160.969 22.0938H41.0312C37.545 22.0938 34.7188 24.92 34.7188 28.4062V186.219C34.7188 189.705 37.545 192.531 41.0312 192.531H160.969C164.455 192.531 167.281 189.705 167.281 186.219V28.4062C167.281 24.92 164.455 22.0938 160.969 22.0938Z" fill="#D8D7DA"/>
<path d="M148.344 9.46875H28.4062C24.92 9.46875 22.0938 12.295 22.0938 15.7812V173.594C22.0938 177.08 24.92 179.906 28.4062 179.906H148.344C151.83 179.906 154.656 177.08 154.656 173.594V15.7812C154.656 12.295 151.83 9.46875 148.344 9.46875Z" fill="#E6E7E8"/>
<path d="M34.7188 186.219H154.656C156.329 186.214 157.932 185.547 159.114 184.364C160.297 183.182 160.964 181.579 160.969 179.906V22.0938H154.656V173.594C154.651 175.266 153.985 176.869 152.802 178.052C151.619 179.235 150.016 179.901 148.344 179.906H34.7188V186.219Z" fill="#C6C5CA"/>
<path d="M53.6562 9.46875V31.5625L47.3438 22.0938L41.0312 31.5625V9.46875H53.6562Z" fill="#FF5023"/>
<path d="M154.656 126.25H160.969V132.562H154.656V126.25Z" fill="#ACABB1"/>
<path d="M160.969 126.25H167.281V132.562H160.969V126.25Z" fill="#C6C5CA"/>
<path d="M154.656 71.6785V173.594C154.651 175.266 153.985 176.869 152.802 178.052C151.619 179.235 150.017 179.901 148.344 179.906H39.4849C62.4743 166.389 83.9994 150.522 103.715 132.563C105.955 130.543 108.196 128.428 110.406 126.25C127.402 110.002 142.271 91.6654 154.656 71.6785Z" fill="#E0E0E2"/>
<path d="M154.656 126.25V132.562H59.9688C58.2961 132.558 56.6934 131.891 55.5107 130.708C54.3279 129.525 53.6612 127.923 53.6562 126.25H154.656Z" fill="#D1D3D4"/>
<path d="M154.656 126.25V132.562H103.714C105.955 130.543 108.196 128.428 110.405 126.25H154.656Z" fill="#BCBEC0"/>
<path d="M173.594 50.5H53.6562C50.17 50.5 47.3438 53.3262 47.3438 56.8125V119.938C47.3438 123.424 50.17 126.25 53.6562 126.25H173.594C177.08 126.25 179.906 123.424 179.906 119.938V56.8125C179.906 53.3262 177.08 50.5 173.594 50.5Z" fill="#5C5D61"/>
<path d="M65.8208 105.04V74.9609H85.1697V79.0117H70.6473V87.7597H83.8338V91.8104H70.6473V105.04H65.8208Z" fill="white"/>
<path d="M102.261 78.7532C101.054 78.7532 100.207 78.509 99.7184 78.0206C99.2588 77.5322 99.0289 76.9289 99.0289 76.2106V75.3057C99.0289 74.5875 99.2588 73.9842 99.7184 73.4958C100.207 73.0074 101.04 72.7632 102.218 72.7632C103.424 72.7632 104.258 73.0074 104.717 73.4958C105.206 73.9842 105.45 74.5875 105.45 75.3057V76.2106C105.45 76.9289 105.206 77.5322 104.717 78.0206C104.258 78.509 103.439 78.7532 102.261 78.7532ZM92.3064 101.248H99.8908V86.5961H92.3064V82.8039H104.588V101.248H111.698V105.04H92.3064V101.248Z" fill="white"/>
<path d="M117.025 101.248H124.394V76.9432H117.025V73.151H129.091V101.248H136.46V105.04H117.025V101.248Z" fill="white"/>
<path d="M153.034 105.557C151.339 105.557 149.817 105.284 148.466 104.738C147.116 104.193 145.981 103.417 145.062 102.411C144.143 101.406 143.439 100.199 142.95 98.7916C142.462 97.3551 142.218 95.7463 142.218 93.9651C142.218 92.1839 142.462 90.5751 142.95 89.1387C143.468 87.7022 144.171 86.4812 145.062 85.4757C145.981 84.4415 147.087 83.6514 148.38 83.1056C149.673 82.5597 151.109 82.2868 152.69 82.2868C154.241 82.2868 155.649 82.5597 156.913 83.1056C158.177 83.6227 159.254 84.3697 160.145 85.3464C161.035 86.3232 161.71 87.4867 162.17 88.837C162.658 90.1873 162.903 91.6812 162.903 93.3187V95.0855H146.958V95.8181C146.958 97.5706 147.504 99.007 148.596 100.127C149.687 101.219 151.196 101.765 153.12 101.765C154.557 101.765 155.778 101.463 156.783 100.86C157.818 100.228 158.651 99.3949 159.283 98.3606L162.213 100.946C161.466 102.239 160.317 103.331 158.766 104.221C157.243 105.112 155.333 105.557 153.034 105.557ZM152.69 85.8636C151.856 85.8636 151.081 86.0072 150.363 86.2945C149.673 86.5818 149.07 86.9983 148.553 87.5442C148.064 88.0613 147.676 88.679 147.389 89.3972C147.102 90.1154 146.958 90.9055 146.958 91.7673V92.069H158.119V91.6381C158.119 89.8856 157.617 88.4923 156.611 87.458C155.634 86.395 154.327 85.8636 152.69 85.8636Z" fill="white"/>
</svg>
